<svg width="11" height="15" viewBox="0 0 11 15" fill="none" xmlns="http://www.w3.org/2000/svg">
<path d="M4.0262 0.145171C2.04972 0.666049 0.598974 2.222 0.232959 4.23874C0.119827 4.86646 0.17972 5.72791 0.38602 6.31557C0.91175 7.83146 2.39577 10.0819 4.31901 12.279C4.65176 12.6596 5.00446 13.0669 5.10428 13.1805L5.28396 13.3942L5.55681 13.0937C7.93258 10.4425 9.61625 7.99173 10.1952 6.32893C10.9472 4.17196 9.71607 1.5275 7.48005 0.472389C6.46186 -0.00174332 5.08432 -0.135302 4.0262 0.145171ZM6.05592 0.839675C6.41528 0.906454 6.78795 1.03333 7.22051 1.24703C9.04393 2.15522 10.0488 4.31887 9.45653 6.06849C9.12379 7.04346 8.27863 8.46586 7.15396 9.94836C6.46852 10.8499 5.36382 12.1587 5.29062 12.1587C5.21741 12.1587 4.11272 10.8499 3.42727 9.94836C2.2893 8.4525 1.41752 6.97668 1.09808 5.98835C0.971643 5.59435 0.951679 5.43408 0.978298 4.81972C1.03154 3.69115 1.41752 2.82969 2.2294 2.00831C3.26755 0.973233 4.56524 0.572557 6.05592 0.839675Z" fill="white"/>
<path d="M4.65301 2.66952C3.9476 2.84982 3.38859 3.3106 3.06251 3.96504C2.28389 5.54771 3.13571 7.27729 4.85931 7.61786C5.6712 7.77813 6.5829 7.46427 7.15522 6.83654C7.6144 6.3357 7.78077 5.86825 7.78743 5.11364C7.78743 4.57941 7.76081 4.46588 7.57447 4.06521C7.31493 3.51094 6.90234 3.09023 6.38326 2.84315C6.06383 2.68955 5.88415 2.64949 5.42497 2.63613C5.11219 2.62278 4.76614 2.64281 4.65301 2.66952ZM6.07714 3.5844C7.16187 4.12531 7.34821 5.6412 6.42319 6.43587C5.23863 7.45091 3.45514 6.54939 3.57493 4.99344C3.61486 4.50595 3.73464 4.24551 4.07404 3.90494C4.59312 3.38406 5.41166 3.2505 6.07714 3.5844Z" fill="white"/>
<path d="M7.35303 12.0984C7.35303 12.4724 7.35969 12.4924 7.53937 12.5325C8.48435 12.7328 9.61567 13.1536 9.61567 13.3005C9.61567 13.4006 8.85702 13.7479 8.33794 13.8948C7.49278 14.1285 6.58107 14.2287 5.34328 14.2287C4.08552 14.2287 3.47993 14.1686 2.52829 13.9482C1.88277 13.8013 0.964409 13.414 0.964409 13.2938C0.964409 13.1202 2.18889 12.6794 3.11391 12.5258L3.36014 12.4858V12.1118V11.7378L3.00744 11.7779C1.94267 11.9048 0.605049 12.4591 0.318892 12.8864C-0.220148 13.6945 0.844622 14.4624 3.06068 14.8698C4.01231 15.0434 6.56776 15.0434 7.5194 14.8698C9.28293 14.5492 10.4142 13.9415 10.4142 13.3205C10.4142 12.6861 9.42933 12.0984 7.86545 11.8046L7.35303 11.7044V12.0984Z" fill="white"/>
</svg>
