<svg width="10" height="8" viewBox="0 0 10 8" fill="none" xmlns="http://www.w3.org/2000/svg">
<path d="M1.14333 3.36034L1.17314 3.31709H1.22567H4.64605C5.58515 3.31709 6.43908 3.31412 7.05813 3.30918C7.3677 3.30671 7.61825 3.30375 7.79125 3.30042C7.81597 3.29995 7.83906 3.29946 7.86047 3.29897C7.81223 3.24247 7.75129 3.17195 7.68002 3.09018C7.49075 2.87303 7.22966 2.57768 6.9428 2.25752C6.38468 1.63462 6.09541 1.31129 5.96822 1.1172C5.9046 1.02013 5.86757 0.93563 5.87436 0.850014C5.88071 0.770028 5.92547 0.707792 5.96011 0.659624C5.96142 0.6578 5.96271 0.655996 5.96399 0.654213C5.99571 0.607302 6.03294 0.567024 6.0849 0.540885C6.13642 0.514971 6.19162 0.508463 6.24813 0.508463C6.26884 0.508463 6.29389 0.50981 6.32257 0.517876C6.35098 0.525868 6.37817 0.53907 6.40646 0.557501C6.46038 0.592637 6.52694 0.65275 6.62297 0.75052C6.81687 0.947938 7.15479 1.32413 7.79355 2.03703C8.36912 2.67941 8.70462 3.05876 8.89619 3.29C8.99163 3.40522 9.05399 3.48679 9.09276 3.54739C9.12983 3.60532 9.15533 3.65868 9.15533 3.71378C9.15533 3.76887 9.12983 3.82223 9.09276 3.88017C9.05399 3.94077 8.99163 4.02233 8.89619 4.13755C8.70462 4.36879 8.36912 4.74815 7.79355 5.39053C7.15479 6.10342 6.81687 6.47962 6.62297 6.67703C6.52694 6.7748 6.46038 6.83492 6.40646 6.87005C6.37817 6.88848 6.35098 6.90169 6.32257 6.90968C6.29389 6.91774 6.26884 6.91909 6.24813 6.91909C6.19162 6.91909 6.13642 6.91258 6.0849 6.88667C6.03294 6.86053 5.9957 6.82025 5.96399 6.77334C5.96271 6.77156 5.96142 6.76975 5.96011 6.76793C5.92547 6.71976 5.88071 6.65753 5.87436 6.57754C5.86757 6.49192 5.9046 6.40743 5.96822 6.31035C6.09541 6.11627 6.38468 5.79293 6.9428 5.17003C7.22966 4.84988 7.49075 4.55453 7.68002 4.33737C7.75129 4.25561 7.81223 4.18508 7.86047 4.12858C7.83906 4.12809 7.81597 4.12761 7.79125 4.12713C7.61825 4.12381 7.3677 4.12084 7.05813 4.11837C6.43908 4.11343 5.58515 4.11046 4.64605 4.11046H1.22567H1.17314L1.14333 4.06721L1.07285 3.96496C1.01732 3.88672 0.983008 3.80371 0.983008 3.71378C0.983008 3.62384 1.01732 3.54083 1.07285 3.4626L1.14333 3.36034Z" fill="white" stroke="white" stroke-width="0.2"/>
</svg>
