<svg width="10" height="7" viewBox="0 0 10 7" fill="none" xmlns="http://www.w3.org/2000/svg">
<path d="M1.0639 2.88035L1.09392 2.84132H1.14316H4.57541C5.5178 2.84132 6.37472 2.83866 6.99595 2.83421C7.30662 2.83199 7.55808 2.82933 7.73174 2.82633C7.7506 2.82601 7.76851 2.82568 7.78546 2.82535C7.74051 2.77834 7.68612 2.72203 7.62388 2.65804C7.43399 2.46282 7.17201 2.19729 6.88416 1.90945C6.32444 1.34972 6.03355 1.05844 5.90539 0.883208C5.84189 0.796387 5.80093 0.715981 5.80841 0.631511C5.81526 0.554208 5.86285 0.495032 5.89675 0.452884C5.89831 0.450948 5.89983 0.449049 5.90133 0.447185C5.93404 0.403851 5.97187 0.367598 6.02326 0.344432C6.07357 0.32176 6.1273 0.316039 6.18306 0.316039C6.23031 0.316039 6.27619 0.323354 6.33757 0.35919C6.3916 0.390738 6.45849 0.444853 6.555 0.532891C6.74969 0.71049 7.0889 1.04885 7.72982 1.68978C8.30736 2.26732 8.64412 2.6085 8.83646 2.81653C8.93223 2.92011 8.99512 2.99379 9.03442 3.04882C9.0713 3.10046 9.1 3.15215 9.1 3.20808C9.1 3.26401 9.0713 3.3157 9.03442 3.36734C8.99512 3.42237 8.93223 3.49605 8.83646 3.59963C8.64412 3.80766 8.30736 4.14884 7.72982 4.72638C7.0889 5.36731 6.74969 5.70567 6.555 5.88327C6.45849 5.97131 6.3916 6.02542 6.33757 6.05697C6.27619 6.09281 6.23031 6.10012 6.18306 6.10012C6.1273 6.10012 6.07357 6.0944 6.02326 6.07173C5.97187 6.04856 5.93404 6.01231 5.90133 5.96897C5.89983 5.96711 5.8983 5.96521 5.89675 5.96328C5.86285 5.92113 5.81526 5.86195 5.80841 5.78465C5.80093 5.70018 5.84189 5.61977 5.90539 5.53295C6.03355 5.35772 6.32444 5.06644 6.88416 4.50671C7.17201 4.21887 7.43399 3.95334 7.62388 3.75812C7.68612 3.69413 7.7405 3.63782 7.78546 3.59081C7.76851 3.59048 7.7506 3.59015 7.73174 3.58983C7.55808 3.58683 7.30662 3.58417 6.99595 3.58195C6.37472 3.5775 5.5178 3.57484 4.57541 3.57484H1.14316H1.09392L1.0639 3.53581L0.993215 3.44392C0.936961 3.3729 0.9 3.29484 0.9 3.20808C0.9 3.12133 0.93696 3.04326 0.993213 2.97224L1.0639 2.88035Z" fill="white" stroke="white" stroke-width="0.2"/>
</svg>
