<svg width="16" height="15" viewBox="0 0 16 15" fill="none" xmlns="http://www.w3.org/2000/svg">
<path fill-rule="evenodd" clip-rule="evenodd" d="M7.59 0.0730747C5.07058 0.317558 2.68332 2.02859 1.60584 4.36224C0.691935 6.34142 0.691935 8.70419 1.60584 10.6834C2.31956 12.2292 3.69692 13.6044 5.25116 14.323C6.81442 15.0458 8.79398 15.2022 10.4278 14.7324C13.4118 13.8742 15.5753 11.2742 15.839 8.22965C16.154 4.59153 13.9216 1.32784 10.4245 0.313707C9.94311 0.174172 8.40434 -0.0402752 8.2197 0.006563C8.20046 0.0113938 7.91709 0.0413591 7.59 0.0730747ZM9.71859 2.19501C10.2883 2.52911 10.5268 3.37373 10.206 3.92158C9.6426 4.8839 8.3301 4.82264 7.86259 3.81215C7.69152 3.44249 7.69698 3.1457 7.8819 2.75203C8.19885 2.07732 9.06825 1.81365 9.71859 2.19501ZM8.74444 5.24152C9.06727 5.38288 9.43284 5.77131 9.58418 6.13369C9.73888 6.50419 9.71649 6.8922 9.40913 9.16809C9.12527 11.2695 9.09141 11.6636 9.18278 11.8006C9.29844 11.9738 9.57886 12.0499 10.028 12.0299C10.5644 12.006 10.5927 12.064 10.229 12.4423C9.26646 13.4435 7.64884 13.0901 7.27298 11.7965C7.16264 11.4165 7.16698 11.3581 7.48246 8.97836C7.74896 6.96859 7.79045 6.51379 7.7223 6.34919C7.6289 6.12347 7.26256 5.91091 6.85206 5.84433C6.28016 5.75149 6.24356 5.73742 6.32353 5.64101C6.39889 5.55014 7.12983 5.24642 7.59 5.1148C7.89463 5.02764 8.37691 5.08056 8.74444 5.24152Z" fill="url(#paint0_linear_263_48)"/>
<defs>
<linearGradient id="paint0_linear_263_48" x1="8.39446" y1="0" x2="8.39446" y2="15" gradientUnits="userSpaceOnUse">
<stop stop-color="#F77433"/>
<stop offset="1" stop-color="#FEAF38"/>
</linearGradient>
</defs>
</svg>
