<svg width="16" height="15" viewBox="0 0 16 15" fill="none" xmlns="http://www.w3.org/2000/svg">
<path fill-rule="evenodd" clip-rule="evenodd" d="M7.45157 0.0730747C4.93215 0.317558 2.54489 2.02859 1.46741 4.36224C0.553507 6.34142 0.553507 8.70419 1.46741 10.6834C2.18114 12.2292 3.5585 13.6044 5.11273 14.323C6.67599 15.0458 8.65555 15.2022 10.2894 14.7324C13.2733 13.8742 15.4369 11.2742 15.7005 8.22965C16.0156 4.59153 13.7832 1.32784 10.2861 0.313707C9.80468 0.174172 8.26591 -0.0402752 8.08127 0.006563C8.06203 0.0113938 7.77866 0.0413591 7.45157 0.0730747ZM9.58016 2.19501C10.1499 2.52911 10.3883 3.37373 10.0675 3.92158C9.50418 4.8839 8.19168 4.82264 7.72416 3.81215C7.55309 3.44249 7.55855 3.1457 7.74347 2.75203C8.06042 2.07732 8.92982 1.81365 9.58016 2.19501ZM8.60602 5.24152C8.92884 5.38288 9.29442 5.77131 9.44575 6.13369C9.60045 6.50419 9.57806 6.8922 9.2707 9.16809C8.98684 11.2695 8.95298 11.6636 9.04436 11.8006C9.16001 11.9738 9.44044 12.0499 9.88955 12.0299C10.426 12.006 10.4543 12.064 10.0906 12.4423C9.12804 13.4435 7.51041 13.0901 7.13455 11.7965C7.02422 11.4165 7.02855 11.3581 7.34403 8.97836C7.61053 6.96859 7.65202 6.51379 7.58388 6.34919C7.49047 6.12347 7.12413 5.91091 6.71363 5.84433C6.14173 5.75149 6.10514 5.73742 6.18511 5.64101C6.26046 5.55014 6.9914 5.24642 7.45157 5.1148C7.7562 5.02764 8.23848 5.08056 8.60602 5.24152Z" fill="url(#paint0_linear_263_43)"/>
<defs>
<linearGradient id="paint0_linear_263_43" x1="8.25603" y1="0" x2="8.25603" y2="15" gradientUnits="userSpaceOnUse">
<stop stop-color="#F77433"/>
<stop offset="1" stop-color="#FEAF38"/>
</linearGradient>
</defs>
</svg>
