<svg width="23" height="72" viewBox="0 0 23 72" fill="none" xmlns="http://www.w3.org/2000/svg">
<path d="M21.5174 11.938C21.5174 17.7386 16.8318 22.438 11.0554 22.438C5.27911 22.438 0.593506 17.7386 0.593506 11.938C0.593506 6.13736 5.27911 1.43799 11.0554 1.43799C16.8318 1.43799 21.5174 6.13736 21.5174 11.938Z" stroke="#FEAA6F"/>
<path d="M21.5174 11.938C21.5174 17.7386 16.8318 22.438 11.0554 22.438C5.27911 22.438 0.593506 17.7386 0.593506 11.938C0.593506 6.13736 5.27911 1.43799 11.0554 1.43799C16.8318 1.43799 21.5174 6.13736 21.5174 11.938Z" stroke="url(#paint0_linear_263_608)"/>
<ellipse cx="10.06" cy="63.5814" rx="7.97232" ry="7.99986" fill="#FD9149"/>
<ellipse cx="7.97232" cy="7.99986" rx="7.97232" ry="7.99986" transform="matrix(1 0 0 -1 2.08765 71.5815)" fill="url(#paint1_linear_263_608)"/>
<ellipse cx="10.06" cy="63.5814" rx="7.97232" ry="7.99986" fill="url(#paint2_linear_263_608)"/>
<path d="M17.5323 63.5817C17.5323 59.438 14.1852 56.0818 10.06 56.0818C5.93474 56.0818 2.58765 59.438 2.58765 63.5817C2.58765 67.7254 5.93474 71.0815 10.06 71.0815C14.1852 71.0815 17.5323 67.7254 17.5323 63.5817Z" stroke="#FD944E"/>
<ellipse cx="10.06" cy="63.5814" rx="7.97232" ry="7.99986" fill="#FD9149"/>
<ellipse cx="7.97232" cy="7.99986" rx="7.97232" ry="7.99986" transform="matrix(1 0 0 -1 2.08765 71.5815)" fill="url(#paint3_linear_263_608)"/>
<ellipse cx="10.06" cy="63.5814" rx="7.97232" ry="7.99986" fill="url(#paint4_linear_263_608)"/>
<path d="M17.5323 63.5817C17.5323 59.438 14.1852 56.0818 10.06 56.0818C5.93474 56.0818 2.58765 59.438 2.58765 63.5817C2.58765 67.7254 5.93474 71.0815 10.06 71.0815C14.1852 71.0815 17.5323 67.7254 17.5323 63.5817Z" stroke="#FD944E"/>
<ellipse cx="10.06" cy="37.6004" rx="7.97232" ry="7.98112" fill="#C2C0C0"/>
<ellipse cx="7.97232" cy="7.98112" rx="7.97232" ry="7.98112" transform="matrix(1 0 0 -1 2.08765 45.5438)" fill="url(#paint5_linear_263_608)"/>
<path d="M17.5323 37.5627C17.5323 33.4305 14.1863 30.0816 10.06 30.0816C5.93364 30.0816 2.58765 33.4305 2.58765 37.5627C2.58765 41.6949 5.93364 45.0438 10.06 45.0438C14.1863 45.0438 17.5323 41.6949 17.5323 37.5627Z" fill="url(#paint6_linear_263_608)" stroke="#D1CFCF"/>
<ellipse opacity="0.6" cx="11.0553" cy="11.938" rx="7.97232" ry="8" fill="#FFDE6A" fill-opacity="0.74"/>
<ellipse cx="11.0553" cy="11.938" rx="7.97232" ry="8" fill="#FFDE6A" fill-opacity="0.74"/>
<ellipse cx="7.97232" cy="8" rx="7.97232" ry="8" transform="matrix(1 0 0 -1 3.08301 19.938)" fill="url(#paint7_linear_263_608)" fill-opacity="0.74"/>
<defs>
<linearGradient id="paint0_linear_263_608" x1="10.7422" y1="12.2523" x2="11.0576" y2="22.9379" gradientUnits="userSpaceOnUse">
<stop stop-color="#FFD588"/>
<stop offset="1" stop-color="#FFD588" stop-opacity="0"/>
</linearGradient>
<linearGradient id="paint1_linear_263_608" x1="7.97232" y1="0" x2="7.97232" y2="15.9997" gradientUnits="userSpaceOnUse">
<stop stop-color="#FEAA6F"/>
<stop offset="0.425" stop-color="#F8F1ED" stop-opacity="0.0696487"/>
<stop offset="0.585576" stop-color="#F8F6F6" stop-opacity="0"/>
</linearGradient>
<linearGradient id="paint2_linear_263_608" x1="10.06" y1="55.5815" x2="10.3811" y2="67.7413" gradientUnits="userSpaceOnUse">
<stop stop-color="#FFCDAA"/>
<stop offset="0.180208" stop-color="#FDDAC2" stop-opacity="0.692255"/>
<stop offset="0.585576" stop-color="#F8F6F6" stop-opacity="0"/>
</linearGradient>
<linearGradient id="paint3_linear_263_608" x1="7.97232" y1="0" x2="7.97232" y2="15.9997" gradientUnits="userSpaceOnUse">
<stop stop-color="#FEAA6F"/>
<stop offset="0.425" stop-color="#F8F1ED" stop-opacity="0.0696487"/>
<stop offset="0.585576" stop-color="#F8F6F6" stop-opacity="0"/>
</linearGradient>
<linearGradient id="paint4_linear_263_608" x1="10.06" y1="55.5815" x2="10.3811" y2="67.7413" gradientUnits="userSpaceOnUse">
<stop stop-color="#FFCDAA"/>
<stop offset="0.180208" stop-color="#FDDAC2" stop-opacity="0.692255"/>
<stop offset="0.585576" stop-color="#F8F6F6" stop-opacity="0"/>
</linearGradient>
<linearGradient id="paint5_linear_263_608" x1="7.97232" y1="0" x2="7.97232" y2="15.9622" gradientUnits="userSpaceOnUse">
<stop stop-color="#F8F6F6"/>
<stop offset="0.585576" stop-color="#F8F6F6" stop-opacity="0"/>
</linearGradient>
<linearGradient id="paint6_linear_263_608" x1="10.06" y1="45.5438" x2="10.06" y2="29.5816" gradientUnits="userSpaceOnUse">
<stop stop-color="#F8F6F6"/>
<stop offset="0.585576" stop-color="#F8F6F6" stop-opacity="0"/>
</linearGradient>
<linearGradient id="paint7_linear_263_608" x1="8.29121" y1="1.28" x2="7.9701" y2="16" gradientUnits="userSpaceOnUse">
<stop stop-color="white"/>
<stop offset="0.227083" stop-color="#F7DBAF" stop-opacity="0.68859"/>
<stop offset="0.258333" stop-color="#F6D6A4" stop-opacity="0.645735"/>
<stop offset="0.729209" stop-color="#E4A23B" stop-opacity="0"/>
</linearGradient>
</defs>
</svg>
