<svg width="23" height="72" viewBox="0 0 23 72" fill="none" xmlns="http://www.w3.org/2000/svg">
<path d="M21.597 11.938C21.597 17.7386 16.9114 22.438 11.135 22.438C5.3587 22.438 0.673096 17.7386 0.673096 11.938C0.673096 6.13736 5.3587 1.43799 11.135 1.43799C16.9114 1.43799 21.597 6.13736 21.597 11.938Z" stroke="#FEAA6F"/>
<path d="M21.597 11.938C21.597 17.7386 16.9114 22.438 11.135 22.438C5.3587 22.438 0.673096 17.7386 0.673096 11.938C0.673096 6.13736 5.3587 1.43799 11.135 1.43799C16.9114 1.43799 21.597 6.13736 21.597 11.938Z" stroke="url(#paint0_linear_263_642)"/>
<ellipse cx="10.1396" cy="63.5814" rx="7.97232" ry="7.99986" fill="#FD9149"/>
<ellipse cx="7.97232" cy="7.99986" rx="7.97232" ry="7.99986" transform="matrix(1 0 0 -1 2.16724 71.5815)" fill="url(#paint1_linear_263_642)"/>
<ellipse cx="10.1396" cy="63.5814" rx="7.97232" ry="7.99986" fill="url(#paint2_linear_263_642)"/>
<path d="M17.6119 63.5817C17.6119 59.438 14.2648 56.0818 10.1396 56.0818C6.01433 56.0818 2.66724 59.438 2.66724 63.5817C2.66724 67.7254 6.01433 71.0815 10.1396 71.0815C14.2648 71.0815 17.6119 67.7254 17.6119 63.5817Z" stroke="#FD944E"/>
<ellipse cx="10.1396" cy="63.5814" rx="7.97232" ry="7.99986" fill="#FD9149"/>
<ellipse cx="7.97232" cy="7.99986" rx="7.97232" ry="7.99986" transform="matrix(1 0 0 -1 2.16724 71.5815)" fill="url(#paint3_linear_263_642)"/>
<ellipse cx="10.1396" cy="63.5814" rx="7.97232" ry="7.99986" fill="url(#paint4_linear_263_642)"/>
<path d="M17.6119 63.5817C17.6119 59.438 14.2648 56.0818 10.1396 56.0818C6.01433 56.0818 2.66724 59.438 2.66724 63.5817C2.66724 67.7254 6.01433 71.0815 10.1396 71.0815C14.2648 71.0815 17.6119 67.7254 17.6119 63.5817Z" stroke="#FD944E"/>
<ellipse cx="10.1396" cy="37.6004" rx="7.97232" ry="7.98112" fill="#C2C0C0"/>
<ellipse cx="7.97232" cy="7.98112" rx="7.97232" ry="7.98112" transform="matrix(1 0 0 -1 2.16724 45.5438)" fill="url(#paint5_linear_263_642)"/>
<path d="M17.6119 37.5627C17.6119 33.4305 14.2659 30.0816 10.1396 30.0816C6.01323 30.0816 2.66724 33.4305 2.66724 37.5627C2.66724 41.6949 6.01323 45.0438 10.1396 45.0438C14.2659 45.0438 17.6119 41.6949 17.6119 37.5627Z" fill="url(#paint6_linear_263_642)" stroke="#D1CFCF"/>
<ellipse opacity="0.6" cx="11.1349" cy="11.938" rx="7.97232" ry="8" fill="#FFDE6A" fill-opacity="0.74"/>
<ellipse cx="11.1349" cy="11.938" rx="7.97232" ry="8" fill="#FFDE6A" fill-opacity="0.74"/>
<ellipse cx="7.97232" cy="8" rx="7.97232" ry="8" transform="matrix(1 0 0 -1 3.1626 19.938)" fill="url(#paint7_linear_263_642)" fill-opacity="0.74"/>
<defs>
<linearGradient id="paint0_linear_263_642" x1="10.8218" y1="12.2523" x2="11.1372" y2="22.9379" gradientUnits="userSpaceOnUse">
<stop stop-color="#FFD588"/>
<stop offset="1" stop-color="#FFD588" stop-opacity="0"/>
</linearGradient>
<linearGradient id="paint1_linear_263_642" x1="7.97232" y1="0" x2="7.97232" y2="15.9997" gradientUnits="userSpaceOnUse">
<stop stop-color="#FEAA6F"/>
<stop offset="0.425" stop-color="#F8F1ED" stop-opacity="0.0696487"/>
<stop offset="0.585576" stop-color="#F8F6F6" stop-opacity="0"/>
</linearGradient>
<linearGradient id="paint2_linear_263_642" x1="10.1396" y1="55.5815" x2="10.4607" y2="67.7413" gradientUnits="userSpaceOnUse">
<stop stop-color="#FFCDAA"/>
<stop offset="0.180208" stop-color="#FDDAC2" stop-opacity="0.692255"/>
<stop offset="0.585576" stop-color="#F8F6F6" stop-opacity="0"/>
</linearGradient>
<linearGradient id="paint3_linear_263_642" x1="7.97232" y1="0" x2="7.97232" y2="15.9997" gradientUnits="userSpaceOnUse">
<stop stop-color="#FEAA6F"/>
<stop offset="0.425" stop-color="#F8F1ED" stop-opacity="0.0696487"/>
<stop offset="0.585576" stop-color="#F8F6F6" stop-opacity="0"/>
</linearGradient>
<linearGradient id="paint4_linear_263_642" x1="10.1396" y1="55.5815" x2="10.4607" y2="67.7413" gradientUnits="userSpaceOnUse">
<stop stop-color="#FFCDAA"/>
<stop offset="0.180208" stop-color="#FDDAC2" stop-opacity="0.692255"/>
<stop offset="0.585576" stop-color="#F8F6F6" stop-opacity="0"/>
</linearGradient>
<linearGradient id="paint5_linear_263_642" x1="7.97232" y1="0" x2="7.97232" y2="15.9622" gradientUnits="userSpaceOnUse">
<stop stop-color="#F8F6F6"/>
<stop offset="0.585576" stop-color="#F8F6F6" stop-opacity="0"/>
</linearGradient>
<linearGradient id="paint6_linear_263_642" x1="10.1396" y1="45.5438" x2="10.1396" y2="29.5816" gradientUnits="userSpaceOnUse">
<stop stop-color="#F8F6F6"/>
<stop offset="0.585576" stop-color="#F8F6F6" stop-opacity="0"/>
</linearGradient>
<linearGradient id="paint7_linear_263_642" x1="8.29121" y1="1.28" x2="7.9701" y2="16" gradientUnits="userSpaceOnUse">
<stop stop-color="white"/>
<stop offset="0.227083" stop-color="#F7DBAF" stop-opacity="0.68859"/>
<stop offset="0.258333" stop-color="#F6D6A4" stop-opacity="0.645735"/>
<stop offset="0.729209" stop-color="#E4A23B" stop-opacity="0"/>
</linearGradient>
</defs>
</svg>
