<svg width="51" height="39" viewBox="0 0 51 39" fill="none" xmlns="http://www.w3.org/2000/svg">
<path fill-rule="evenodd" clip-rule="evenodd" d="M0.617716 0.152795C-0.130766 0.711326 0.542823 1.15001 3.21702 1.84528C4.6156 2.20904 5.7771 2.5241 5.79793 2.54567C5.81898 2.56702 5.55796 3.78524 5.21807 5.25272C4.87817 6.72019 4.32911 9.10351 3.99807 10.549L3.39605 13.1769L1.9793 13.0246C0.765063 12.8943 0.541937 12.9263 0.418519 13.2487C0.208244 13.7985 0.72097 14.1536 2.17406 14.4642C3.2959 14.7044 3.52966 14.6928 4.01403 14.3742C4.31913 14.1736 4.6238 13.8659 4.69094 13.6903C4.79131 13.4279 4.92514 13.4512 5.44341 13.8217C6.02349 14.2361 7.86523 15.1237 8.82421 15.4512C9.1938 15.5775 9.19823 15.6276 8.8796 16.0842C7.89093 17.5006 8.94851 19.1493 10.8454 19.1493C11.6165 19.1493 11.6356 19.1702 11.6356 20.0189C11.6356 20.7244 11.7694 21.0016 12.3448 21.4874C13.0641 22.0947 13.6344 22.1367 15.1254 21.6918L15.6239 21.5433V28.8735C15.6239 36.1106 15.6303 36.2136 16.1231 36.9475C16.3979 37.3564 16.9711 37.8965 17.3972 38.1478C18.1579 38.596 18.4419 38.6044 32.9068 38.6044C49.4089 38.6044 48.3613 38.7063 49.5352 36.988L50.0789 36.192L50.135 28.1709C50.1908 20.2045 50.1877 20.1438 49.6918 19.2813C49.4173 18.8037 48.9112 18.2034 48.5673 17.9473C47.9602 17.4952 47.654 17.4783 38.0458 17.3705L28.1496 17.2593L27.7778 13.813L27.4062 10.3667L25.5062 6.56811C24.461 4.47896 23.4192 2.59992 23.1907 2.39248C22.4389 1.70965 21.5548 1.66852 15.9563 2.05585C12.9096 2.26663 9.70076 2.44695 8.82532 2.45629C7.39748 2.47163 7.21889 2.4256 7.08683 2.00849C6.9016 1.42261 5.99159 1.04062 3.21214 0.381366C1.35911 -0.0579876 0.948749 -0.0942298 0.617716 0.152795ZM22.4815 3.84239C22.7154 4.22838 23.6088 5.95422 24.4668 7.67783L26.0267 10.8113L26.3648 13.8579C26.5507 15.5335 26.7027 17.0094 26.7027 17.1375C26.7027 17.3283 24.9793 17.4986 24.9086 17.3149C24.8969 17.2842 24.7719 16.3106 24.631 15.1508L24.3748 13.0426L22.7137 11.8762C21.8001 11.2345 20.7534 10.6237 20.3878 10.519C18.4574 9.96487 16.8687 12.1301 18.0759 13.6698C18.3276 13.9911 20.082 15.4721 21.9745 16.961C23.8672 18.45 25.4636 19.7938 25.5221 19.9473C25.6985 20.4082 25.1689 21.1504 24.6635 21.1504C24.4036 21.1504 22.2829 20.0564 19.9511 18.7195C16.241 16.5925 15.214 16.118 11.7346 14.9241C8.10076 13.6771 6.6993 13.0495 5.58145 12.1685C5.19126 11.8613 5.19369 11.7752 5.64748 9.66315C5.90584 8.46027 6.25172 6.92586 6.4159 6.25327C6.58031 5.58068 6.7753 4.76156 6.84931 4.43293C6.96785 3.90687 7.06955 3.84728 7.70326 3.9331C8.09899 3.98691 10.8157 3.84394 13.7405 3.61537C16.6653 3.38702 19.7328 3.18669 20.5573 3.17024C22.0144 3.14133 22.068 3.16001 22.4815 3.84239ZM21.4525 12.7357C22.2074 13.2438 22.8681 13.6954 22.9206 13.7394C23.0595 13.8557 23.3192 16.0364 23.194 16.0364C23.0549 16.0364 21.8673 15.1233 20.2502 13.7728C19.1197 12.8289 18.9741 12.6221 19.1744 12.2466C19.5112 11.6149 19.9165 11.7021 21.4525 12.7357ZM13.7908 17.2998C13.8331 17.4272 13.347 17.5917 12.696 17.6702C11.0047 17.8741 10.0894 17.8472 10.0513 17.5929C10.0331 17.4706 10.0081 17.2544 9.9959 17.1124C9.98371 16.9705 10.3227 16.7357 10.7493 16.5907C11.3892 16.3731 11.7162 16.392 12.6198 16.6988C13.222 16.9034 13.7489 17.1737 13.7908 17.2998ZM16.1464 18.1674C16.4389 18.2799 16.4247 18.4109 16.0398 19.1519C15.6926 19.8203 15.3742 20.0822 14.5781 20.3544C13.821 20.6132 13.4842 20.639 13.2628 20.4544C12.7915 20.062 12.8919 19.8875 14.1283 18.9474C15.3248 18.0378 15.567 17.9442 16.1464 18.1674ZM48.104 19.4397L48.6387 20.0636V27.9877V35.9121L48.0433 36.5355L47.4479 37.1592H32.8483H18.2487L17.601 36.5093L16.9534 35.8594L16.9582 28.0046C16.9629 20.7702 16.9948 20.1085 17.3642 19.6266L17.7652 19.1032L19.0211 19.8145C20.4735 20.637 20.5859 20.7711 20.4106 21.4717C20.3255 21.8121 19.9763 22.1122 19.3927 22.3466L18.5044 22.7032V28.0468V33.3905L19.1578 33.5216C19.928 33.6762 20.3838 34.1462 20.5843 34.9933L20.7295 35.6066L32.827 35.5492L44.9246 35.4916L45.1752 34.7134C45.3554 34.1538 45.6126 33.8727 46.0905 33.7129C47.3553 33.2897 47.3094 33.5021 47.3059 28.0855C47.3039 25.3107 47.2292 22.9389 47.1397 22.8151C47.0502 22.6912 46.6808 22.4898 46.319 22.3675C45.7101 22.1616 45.2884 21.612 45.0017 20.6501C44.8938 20.2879 44.2674 20.261 35.9309 20.261C27.5925 20.261 26.9684 20.2341 26.8644 19.8719C26.8031 19.6578 26.6801 19.3049 26.591 19.0875C26.4368 18.711 26.9413 18.695 36.9991 18.7539L47.5693 18.8158L48.104 19.4397ZM25.192 22.4755C25.6309 22.3539 26.1126 22.106 26.2626 21.9248C26.4951 21.6438 27.7995 21.5953 35.0942 21.5964L43.6532 21.598L44.0343 22.2701C44.2442 22.6399 44.717 23.1143 45.0855 23.3249L45.7553 23.7073L45.7569 27.9817L45.7582 32.2563L45.0972 32.5991C44.7336 32.7879 44.2825 33.2406 44.0944 33.6055L43.7527 34.2687L32.8456 34.2674L21.9388 34.2658L21.5577 33.5937C21.3479 33.2239 20.875 32.7494 20.5066 32.5389L19.8367 32.1564L19.8352 28.0002L19.8339 23.8436L20.5083 23.4439C20.8792 23.224 21.3725 22.7212 21.6045 22.3266L22.0263 21.6091L23.2102 22.1529C24.2075 22.6112 24.5197 22.6619 25.192 22.4755ZM30.14 23.8096C29.9406 24.44 30.1706 24.7079 30.9113 24.7079C31.7012 24.7079 32.6852 25.0683 32.6852 25.3578C32.6852 25.4768 32.1721 25.6042 31.5448 25.6413C30.2557 25.7171 29.7243 26.1869 30.2324 26.8015C30.4347 27.0461 30.9027 27.1537 31.7628 27.1537C32.8855 27.1537 32.9693 27.1861 32.656 27.5008C32.4656 27.6915 31.8222 27.9179 31.2262 28.0035C30.4413 28.116 30.1214 28.2676 30.0667 28.5531C29.9563 29.1279 33.3019 32.5291 33.8937 32.4437C34.7224 32.3239 34.5529 31.6015 33.4268 30.4544C32.2986 29.3049 32.2988 29.3304 33.4031 28.6961C33.615 28.5742 33.9356 28.1891 34.1155 27.8403C34.2952 27.4912 34.6951 27.1421 35.004 27.0643C35.8442 26.8526 35.7784 25.9375 34.901 25.6306C34.061 25.3367 34.028 24.7615 34.8456 24.667C35.3291 24.6112 35.4549 24.482 35.4549 24.0409V23.485L32.8685 23.4225C30.4389 23.3638 30.2736 23.3872 30.14 23.8096Z" fill="#302F2F"/>
</svg>
