<svg width="43" height="36" viewBox="0 0 43 36" fill="none" xmlns="http://www.w3.org/2000/svg">
<path fill-rule="evenodd" clip-rule="evenodd" d="M19.4276 0.11817C16.5552 0.488338 13.5098 1.58596 11.0682 3.13083C8.60948 4.68646 5.93439 7.58169 4.76917 9.94819C4.31667 10.8673 4.30291 10.9739 4.60181 11.2576C5.06078 11.6937 5.47765 11.4704 5.98964 10.5144C8.52145 5.78562 13.566 2.32515 19.124 1.50428C20.9759 1.23079 24.2053 1.37839 26.0045 1.81852C30.8761 3.01013 35.2071 6.34049 37.4892 10.6491C37.9735 11.5634 38.956 14.1502 38.956 14.5107C38.956 14.5511 38.5559 14.3994 38.0668 14.1738C37.0509 13.705 36.4673 13.8046 36.564 14.43C36.6379 14.9076 39.1826 16.497 39.8875 16.5057C40.4227 16.5124 42.5986 14.1086 42.5986 13.5105C42.5986 13.0625 42.1036 12.771 41.7227 12.9945C41.595 13.0694 41.2763 13.3723 41.0146 13.6677C40.3883 14.3746 40.2426 14.3462 40.0753 13.484C39.9984 13.0877 39.6638 12.1146 39.332 11.3218C37.4243 6.76467 33.1304 2.8064 28.29 1.14295C25.4846 0.178903 22.0436 -0.219133 19.4276 0.11817ZM14.7732 11.5009L10.7258 13.9662L10.5741 18.2658C10.4905 20.6304 10.4449 23.949 10.4729 25.6404L10.5235 28.7155L18.5169 28.757L26.5104 28.7987L29.7906 25.4897L33.0709 22.1808L33.079 15.9099C33.0853 11.1152 33.0278 9.59436 32.8344 9.44886C32.6856 9.33701 29.7469 9.21266 25.701 9.14692L18.8205 9.03545L14.7732 11.5009ZM20.6317 10.5173C20.5258 10.6034 19.4278 11.3818 18.1911 12.247C16.0382 13.7537 15.8971 13.8203 14.8622 13.8203C14.1808 13.8203 13.8526 13.7531 13.9738 13.6381C14.0794 13.5378 15.3044 12.7619 16.6956 11.9138C18.7503 10.661 19.3754 10.3704 20.0246 10.3662C20.4643 10.3633 20.7375 10.4312 20.6317 10.5173ZM24.7808 10.505C24.7757 10.5842 23.86 11.2978 22.746 12.0906C19.6356 14.3041 19.9335 13.7736 19.9335 17.1002V19.9804L19.3005 19.6696C18.6997 19.3744 18.4127 19.3773 17.3533 19.6892L16.898 19.8232V17.3081V14.793L19.9841 12.5922C22.7535 10.6174 23.1584 10.3899 23.9302 10.3762C24.4034 10.3678 24.7861 10.4258 24.7808 10.505ZM30.1429 10.72C30.0373 10.8119 29.054 11.5471 27.9582 12.3537L25.9657 13.8203H24.4673C23.6433 13.8203 22.9726 13.7554 22.9773 13.6762C22.982 13.597 23.9153 12.8628 25.0516 12.0448L27.1175 10.5576L28.7263 10.5553C29.6493 10.554 30.2532 10.6241 30.1429 10.72ZM31.6708 16.4751V21.6285L29.2424 24.0632L26.814 26.4979L26.8146 23.5706C26.815 21.9606 26.8739 19.3018 26.9455 17.6623L27.0756 14.6814L29.3227 13.0102C30.5584 12.0912 31.5925 11.3355 31.6202 11.3305C31.6479 11.3257 31.6708 13.6408 31.6708 16.4751ZM15.6381 18.2968C15.7026 22.0473 15.7281 22.0895 17.3993 21.231L18.4404 20.6961L19.5029 21.2074C21.313 22.0786 21.3501 22.0205 21.3501 18.3241V15.1657H23.5073H25.6643L25.531 19.5212C25.4575 21.9166 25.3974 24.7274 25.3974 25.7676V27.6584H18.6181H11.8388L11.8399 23.4782C11.8403 21.1789 11.9 18.3218 11.9722 17.1286L12.1039 14.9595L13.8433 15.0145L15.5826 15.0696L15.6381 18.2968ZM2.03661 16.5266C1.08144 17.4884 0.703215 18.0094 0.747331 18.3025C0.838598 18.9078 1.47565 18.9279 2.11533 18.346L2.67265 17.839L2.81248 19.4332C3.51004 27.3861 9.49524 33.8869 17.7595 35.6679C20.1061 36.1736 24.0124 36.0925 26.4222 35.4877C33.2735 33.7687 38.4693 28.7549 40.1649 22.2264C40.7044 20.1497 40.6631 19.7031 39.9243 19.6221C39.4645 19.5718 39.3544 19.6502 39.25 20.1026C38.6625 22.6485 38.2157 23.9658 37.4271 25.477C35.2318 29.6838 30.9825 32.9651 26.1057 34.2196C23.805 34.8115 19.7034 34.8113 17.4039 34.2194C14.1367 33.3781 11.4284 31.8592 9.08544 29.5538C6.07807 26.5948 4.4988 23.2418 4.21144 19.207L4.08193 17.3861L4.74346 18.1019C5.44669 18.8624 5.96475 18.9985 6.37413 18.5301C6.57589 18.2991 6.56416 18.1578 6.31363 17.8094C5.77978 17.0665 3.83201 15.1657 3.60475 15.1657C3.48576 15.1657 2.7801 15.7782 2.03661 16.5266Z" fill="black"/>
</svg>
