<svg width="40" height="37" viewBox="0 0 40 37" fill="none" xmlns="http://www.w3.org/2000/svg">
<path d="M9.12143 0.84479C8.69031 1.0592 8.61112 1.4138 8.91027 1.7684C9.14782 2.04878 9.53495 2.05702 9.8253 1.77664C9.94847 1.66944 10.0453 1.521 10.0453 1.45503C10.0453 1.22413 9.85169 0.927254 9.63173 0.836543C9.37658 0.729339 9.34139 0.729339 9.12143 0.84479Z" fill="url(#paint0_linear_263_209)"/>
<path d="M30.3166 1.66145C30.123 1.75216 29.9294 2.05727 29.9294 2.27992C29.9294 2.47783 30.343 2.80768 30.5893 2.80768C30.8797 2.80768 31.2492 2.46958 31.2492 2.2057C31.2492 1.78514 30.7125 1.48003 30.3166 1.66145Z" fill="url(#paint1_linear_263_209)"/>
<path d="M35.7803 1.97496C35.3315 2.16463 34.742 2.78311 34.6101 3.20367C34.1614 4.59731 35.3755 5.9992 36.8976 5.83427C38.6573 5.63636 39.4404 3.64073 38.2174 2.445C38.0414 2.27183 37.7335 2.05742 37.5399 1.97496C37.0736 1.77704 36.2466 1.7688 35.7803 1.97496Z" fill="url(#paint2_linear_263_209)"/>
<path d="M14.4089 3.50856C13.5467 3.73121 12.8516 4.13529 12.0598 4.86922C11.4439 5.44646 11.2327 5.71035 10.8984 6.34532C10.6696 6.76589 10.4849 7.16171 10.4849 7.22769C10.4849 7.29366 10.5816 7.38437 10.696 7.4256C10.96 7.51631 11.1887 7.81318 11.1887 8.06057C11.1887 8.30796 11.4527 8.30796 12.1126 8.07706C13.9074 7.45034 15.3152 5.84229 15.8079 3.86316C15.8659 3.6207 15.6798 3.38859 15.4305 3.39242L15.3856 3.39311C15.0864 3.39311 14.6465 3.45084 14.4089 3.50856Z" fill="url(#paint3_linear_263_209)"/>
<path d="M24.1842 3.93725C24.3514 4.69592 24.9761 5.86691 25.5656 6.52662C26.1023 7.13685 27.0965 7.80481 27.8619 8.07694C28.5218 8.30784 28.7858 8.30784 28.7858 8.06045C28.7858 7.81306 29.0145 7.51619 29.2785 7.42548C29.3928 7.38424 29.4896 7.29353 29.4896 7.22756C29.4896 7.16159 29.3049 6.75752 29.0761 6.33695C28.7418 5.71847 28.513 5.42985 27.9059 4.86909C26.8237 3.85479 25.7679 3.38474 24.5538 3.38474C24.298 3.38474 24.1093 3.62373 24.1688 3.87253L24.1842 3.93725Z" fill="url(#paint4_linear_263_209)"/>
<path d="M1.72194 7.34311C1.62516 7.3761 1.49318 7.51629 1.43159 7.64823C1.24683 8.0688 1.54597 8.49762 2.03868 8.49762C2.29384 8.49762 2.65458 8.13478 2.65458 7.87913C2.65458 7.63174 2.29384 7.26065 2.06508 7.2689C1.9771 7.2689 1.82752 7.30188 1.72194 7.34311Z" fill="url(#paint5_linear_263_209)"/>
<path d="M9.56097 8.2172C8.76912 8.81094 7.42296 10.0562 7.35258 10.2541C7.29099 10.4437 7.54614 10.7241 7.7837 10.7241C7.88928 10.7241 8.3292 10.3943 8.8483 9.91597C9.34101 9.47066 9.9657 8.95113 10.2472 8.75322C10.6344 8.47284 10.7488 8.34914 10.7488 8.17597C10.7488 7.91208 10.5992 7.7554 10.3616 7.7554C10.256 7.7554 9.90411 7.96981 9.56097 8.2172Z" fill="url(#paint6_linear_263_209)"/>
<path d="M29.3314 7.85432C29.2698 7.91205 29.2258 8.05224 29.2258 8.17594C29.2258 8.34911 29.3402 8.47281 29.7361 8.75319C30.0089 8.95111 30.6336 9.47065 31.1263 9.91596C31.6806 10.419 32.0853 10.7241 32.1997 10.7241C32.3756 10.7241 32.6572 10.452 32.6572 10.2871C32.6572 10.1469 31.2143 8.81917 30.4928 8.28314C29.7713 7.75536 29.5338 7.66465 29.3314 7.85432Z" fill="url(#paint7_linear_263_209)"/>
<path d="M5.79469 8.66228C4.75648 9.75082 4.34296 11.4826 4.73889 13.1566C4.86207 13.6926 4.91486 13.7998 5.13481 13.907C5.51314 14.0885 5.67152 14.3771 5.62752 14.7894C5.59233 15.0616 5.61873 15.1935 5.7595 15.3502C5.84914 15.4563 6.01068 15.4622 6.10781 15.3629L6.3138 15.1523C7.12325 14.3111 7.65995 12.7608 7.55437 11.6145C7.51917 11.2187 7.46638 11.1032 7.24643 10.9301C6.92968 10.6827 6.8505 10.3611 7.00887 10.0065C7.12325 9.75082 7.11445 9.70134 6.8241 9.18181C6.66573 8.86845 6.45457 8.53034 6.36659 8.43138C6.28262 8.32645 6.12555 8.31919 6.03226 8.41593L5.79469 8.66228Z" fill="url(#paint8_linear_263_209)"/>
<path d="M33.475 8.62973C33.3166 8.85239 33.1142 9.19873 33.0263 9.39665C32.8767 9.71001 32.8679 9.78422 32.9647 10.0151C33.123 10.3697 33.0351 10.6831 32.7095 10.947C32.5373 11.0823 32.4368 11.2893 32.4368 11.5083V11.9943C32.4456 12.9756 32.6567 13.7177 33.1406 14.4764C33.4398 14.9382 33.9501 15.5072 34.0645 15.5072C34.2053 15.5072 34.3548 15.0949 34.3372 14.732C34.3196 14.3032 34.4428 14.0971 34.8651 13.8992C35.0499 13.8085 35.1203 13.6765 35.2347 13.157C35.6306 11.4747 35.2171 9.71825 34.1701 8.65447L34.0898 8.573C33.913 8.39344 33.616 8.42084 33.475 8.62973Z" fill="url(#paint9_linear_263_209)"/>
<path d="M18.1306 9.86652C16.6172 10.1222 15.2711 10.6334 13.9777 11.4333C11.6374 12.9012 9.99207 15.1855 9.37618 17.8326C9.15622 18.7644 9.12103 20.4219 9.2882 21.4033C9.46416 22.4093 9.93928 23.77 10.388 24.5369C10.5897 24.8946 10.9656 25.1189 11.3761 25.1267L12.8955 25.1554C14.6992 25.1884 15.0775 25.2214 15.1479 25.3203C15.2623 25.4935 15.2535 25.5925 15.1127 25.7821C14.9983 25.9223 14.84 25.9388 13.1507 25.98L12.6524 25.9913C12.1632 26.0023 11.933 26.6004 12.2884 26.9366C13.3882 27.9757 14.3913 28.6436 15.6054 29.1302C17.937 30.0703 20.4093 30.2517 22.8025 29.6497C24.7205 29.1632 26.1987 28.3468 27.6856 26.9366C28.0411 26.6004 27.8108 26.0023 27.3216 25.9913L26.8234 25.98C25.1341 25.9388 24.9757 25.9223 24.8613 25.7821C24.7029 25.576 24.7029 25.444 24.8789 25.2873C24.9933 25.1719 25.3188 25.1554 27.1137 25.1554H28.5263C28.9542 25.1554 29.3503 24.9297 29.5684 24.5617C30.9058 22.2939 31.1609 19.2015 30.2283 16.5956C28.9878 13.1156 25.706 10.5015 21.7731 9.85827C20.8493 9.70984 19.0368 9.70984 18.1306 9.86652ZM26.6034 14.7402C26.6738 14.8226 27.2193 15.6225 27.8088 16.5131C28.8206 18.0387 28.8822 18.1459 28.7678 18.3356C28.539 18.7562 20.1982 28.7014 20.0486 28.7508C19.9606 28.7756 19.811 28.7508 19.7231 28.6849C19.5207 28.5612 11.4174 18.7232 11.2238 18.3686C11.0919 18.1377 11.1007 18.1129 12.1653 16.5131C12.7548 15.6225 13.3003 14.8226 13.3706 14.7402C13.4938 14.6082 13.9249 14.6 19.987 14.6C26.0491 14.6 26.4802 14.6082 26.6034 14.7402Z" fill="url(#paint10_linear_263_209)"/>
<path d="M13.714 15.7296C13.5996 15.9028 13.2565 16.4058 12.9662 16.8511C12.667 17.2964 12.4207 17.6922 12.4207 17.7417C12.4207 17.7912 13.0629 17.8077 14.1099 17.7994L14.6868 17.791C15.3862 17.7808 16.0331 17.4179 16.4063 16.8264C16.7318 16.3068 17.0662 15.7791 17.1366 15.6471C17.1948 15.5488 17.124 15.4245 17.0097 15.4245H15.5881H14.2825C14.0538 15.4245 13.8404 15.539 13.714 15.7296Z" fill="url(#paint11_linear_263_209)"/>
<path d="M17.5676 16.5544C17.1805 17.1811 16.8549 17.7171 16.8373 17.7501C16.8197 17.7831 18.2363 17.8161 19.9871 17.8161C20.6356 17.8161 21.2382 17.8116 21.7391 17.8042C22.6701 17.7905 22.896 17.3466 22.4067 16.5544C21.9689 15.8517 21.1996 15.4246 20.3717 15.4246H19.9871H19.6025C18.7747 15.4246 18.0054 15.8517 17.5676 16.5544Z" fill="url(#paint12_linear_263_209)"/>
<path d="M22.8378 15.6474C22.9082 15.7793 23.2425 16.3071 23.568 16.8266C23.9413 17.4182 24.5881 17.7811 25.2875 17.7913L25.8644 17.7997C26.8938 17.8079 27.5537 17.7914 27.5537 17.7419C27.5537 17.7007 27.2194 17.1647 26.8146 16.5627C26.3575 15.8762 25.5916 15.4587 24.7669 15.4466L24.3951 15.4412L22.9646 15.4272C22.851 15.4261 22.7799 15.5496 22.8378 15.6474Z" fill="url(#paint13_linear_263_209)"/>
<path d="M12.5263 18.6408C12.5615 18.748 18.5003 25.9801 18.5531 25.9801C18.6032 25.9801 18.5421 25.8925 18.5229 25.8462C18.3877 25.5199 17.8283 24.0668 17.1718 22.3599C16.4415 20.4303 15.7992 18.7892 15.7553 18.7068C15.6761 18.5748 15.5265 18.5583 14.0836 18.5583C13.0894 18.5583 12.5087 18.5913 12.5263 18.6408Z" fill="url(#paint14_linear_263_209)"/>
<path d="M16.7314 18.6654C16.7314 18.7644 19.8637 27.052 19.9252 27.1015C19.9604 27.1345 23.2422 18.7809 23.2422 18.6572C23.2422 18.583 22.424 18.5582 19.9868 18.5582C17.3473 18.5582 16.7314 18.5747 16.7314 18.6654Z" fill="url(#paint15_linear_263_209)"/>
<path d="M22.9437 21.8733C22.2223 23.704 21.5624 25.378 21.4656 25.6089C21.3512 25.8975 21.3336 25.98 21.4216 25.8975C21.6504 25.6749 27.4661 18.6489 27.4661 18.6077C27.4661 18.583 26.7446 18.5582 25.856 18.5582C24.8847 18.5582 24.0123 19.1528 23.6572 20.0569L22.9437 21.8733Z" fill="url(#paint16_linear_263_209)"/>
<path d="M38.3755 9.8995C37.9796 10.2706 38.2788 10.8891 38.8419 10.8891C39.2202 10.8891 39.4314 10.6747 39.4314 10.2871C39.4314 10.0727 39.3786 9.95722 39.2378 9.86651C38.965 9.68508 38.5867 9.70158 38.3755 9.8995Z" fill="url(#paint17_linear_263_209)"/>
<path d="M4.51059 14.3855C4.36982 14.5504 3.9123 15.7462 3.65715 16.6203C3.47238 17.2882 3.46358 17.3707 3.57796 17.5439C3.72754 17.75 4.07067 17.7995 4.22025 17.6263C4.27304 17.5769 4.39621 17.2223 4.493 16.8429C4.59858 16.4718 4.81854 15.8121 4.97691 15.3916C5.24966 14.6906 5.26726 14.5999 5.15288 14.4432C5.0033 14.2453 4.66017 14.2123 4.51059 14.3855Z" fill="url(#paint18_linear_263_209)"/>
<path d="M34.8214 14.4432C34.707 14.5999 34.7246 14.6906 34.9974 15.3916C35.1557 15.8121 35.3757 16.4718 35.4813 16.8429C35.5781 17.2223 35.7012 17.5769 35.754 17.6263C35.9036 17.7995 36.2467 17.75 36.3963 17.5439C36.5195 17.3625 36.5107 17.28 36.2643 16.4801C35.974 15.507 35.6045 14.5422 35.4637 14.3772C35.3141 14.2123 34.971 14.2453 34.8214 14.4432Z" fill="url(#paint19_linear_263_209)"/>
<path d="M0.243449 15.7957C0.146666 16.0431 0.190658 17.1069 0.322634 17.5687C0.630577 18.6737 1.51921 19.8612 2.56622 20.5787C2.95335 20.8425 3.05013 20.8755 3.34928 20.826C3.7892 20.7601 4.17632 20.9332 4.3171 21.2713C4.47547 21.6177 4.73062 21.6589 4.80101 21.3456C4.95938 20.6034 4.80101 19.7045 4.35229 18.7809C4.08834 18.2532 4.00036 18.146 3.83319 18.146C3.71881 18.146 3.49885 18.047 3.34928 17.9151C3.13812 17.7419 3.07653 17.6182 3.06773 17.3708C3.05893 17.0739 3.01494 17.0162 2.52223 16.6781C1.99433 16.307 0.964916 15.804 0.533795 15.7133C0.366626 15.672 0.28744 15.6968 0.243449 15.7957Z" fill="url(#paint20_linear_263_209)"/>
<path d="M39.1677 15.7876C38.6222 15.9772 37.9975 16.3071 37.452 16.6782C36.9593 17.0163 36.9153 17.074 36.9065 17.3709C36.8977 17.6183 36.8361 17.742 36.625 17.9151C36.4754 18.0471 36.2554 18.146 36.1411 18.146C35.9739 18.146 35.8859 18.2532 35.6219 18.781C35.4548 19.1356 35.27 19.6221 35.2172 19.8613C35.1116 20.3313 35.094 21.1312 35.1732 21.4116C35.2436 21.659 35.5164 21.5765 35.6571 21.2714C35.7979 20.9333 36.185 20.7601 36.6162 20.8261C36.9065 20.8756 37.0209 20.8426 37.3464 20.6282C38.0327 20.1911 38.8861 19.2428 39.2557 18.5254C39.6428 17.7584 39.7836 17.2059 39.7836 16.4555C39.7836 15.6391 39.7396 15.5896 39.1677 15.7876Z" fill="url(#paint21_linear_263_209)"/>
<path d="M3.23441 21.3785C3.09363 21.5929 3.14642 22.3516 3.41038 23.671C3.59514 24.6029 3.89429 24.8997 4.27262 24.5039C4.41339 24.3637 4.4046 24.2978 4.24622 23.4154C4.14944 22.8959 4.04386 22.2196 4.00867 21.9145C3.96468 21.5022 3.91188 21.3373 3.78871 21.2795C3.54235 21.1476 3.37518 21.1806 3.23441 21.3785Z" fill="url(#paint22_linear_263_209)"/>
<path d="M36.1587 21.2796C36.0619 21.3373 36.0003 21.527 35.9563 21.9228C35.9299 22.2279 35.8244 22.8959 35.7276 23.4154C35.5692 24.2978 35.5604 24.3637 35.7012 24.5039C36.0795 24.8997 36.3787 24.6029 36.5634 23.671C36.8274 22.3516 36.8802 21.593 36.7394 21.3786C36.6074 21.1889 36.4051 21.1477 36.1587 21.2796Z" fill="url(#paint23_linear_263_209)"/>
<path d="M0.384267 24.4215C-0.0556511 24.5204 -0.0556511 24.5864 0.393065 25.3121C1.14093 26.516 2.76862 27.4726 4.38752 27.6788C4.77465 27.72 4.87143 27.7035 5.0386 27.5551C5.30255 27.3242 5.87444 27.3159 6.12079 27.5386C6.27916 27.6788 6.36715 27.6953 6.6399 27.6293C6.82466 27.5963 7.00063 27.5386 7.02702 27.5139C7.05342 27.4891 6.96544 27.2582 6.83346 27.0026C6.34075 26.0625 4.75705 24.7761 4.33473 24.9822C3.98279 25.1636 3.70125 25.0894 3.33172 24.7266C3.10566 24.5041 2.80322 24.3763 2.48613 24.3692L1.87119 24.3555C1.2641 24.3472 0.595427 24.3802 0.384267 24.4215Z" fill="url(#paint24_linear_263_209)"/>
<path d="M37.1529 24.3884C37.0385 24.4132 36.801 24.5699 36.6162 24.7513C36.2731 25.0894 35.9827 25.1554 35.6396 24.9822C35.2173 24.776 33.6336 26.0625 33.1409 27.0026C33.0089 27.2582 32.9209 27.4891 32.9473 27.5139C32.9737 27.5386 33.1409 27.5963 33.3256 27.6293C33.5896 27.687 33.6952 27.6705 33.8711 27.5386C34.1615 27.3242 34.6806 27.3324 34.9357 27.5551C35.1029 27.7035 35.1997 27.72 35.5868 27.6788C37.2145 27.4726 38.8246 26.5243 39.5813 25.312C40.0388 24.5699 40.0388 24.5286 39.5197 24.4214C39.0886 24.3307 37.584 24.3142 37.1529 24.3884Z" fill="url(#paint25_linear_263_209)"/>
<path d="M5.31154 27.8933C5.08278 28.1077 5.20596 28.4211 5.93623 29.4436C6.49052 30.2188 7.03602 30.862 7.1944 30.9527C7.37036 31.0434 7.65191 30.9445 7.75749 30.7548C7.87187 30.5569 7.81028 30.4414 7.1856 29.6828C6.92165 29.3612 6.56091 28.8746 6.38494 28.5943C6.20018 28.3139 5.99781 28.017 5.92743 27.9346C5.77786 27.7696 5.46111 27.7531 5.31154 27.8933Z" fill="url(#paint26_linear_263_209)"/>
<path d="M34.056 27.9344C33.9768 28.0169 33.7744 28.3138 33.5897 28.5942C33.4137 28.8745 33.053 29.3611 32.789 29.6827C32.5339 29.996 32.2787 30.3259 32.2259 30.4249C32.0499 30.73 32.3843 31.0846 32.7362 30.9691C32.921 30.9031 33.4665 30.2517 34.144 29.2868C34.7247 28.454 34.8478 28.1736 34.7071 27.9674C34.5839 27.7778 34.2144 27.7613 34.056 27.9344Z" fill="url(#paint27_linear_263_209)"/>
<path d="M37.9536 30.6228C37.3817 31.1919 38.2527 31.967 38.851 31.4228C38.9478 31.332 39.0182 31.1506 39.0182 31.0022C39.0182 30.4909 38.3319 30.2435 37.9536 30.6228Z" fill="url(#paint28_linear_263_209)"/>
<path d="M8.13609 30.9774C7.90734 31.3072 7.47622 31.4474 7.06269 31.332C6.70196 31.233 6.40281 31.332 5.61096 31.8267C5.44277 31.9278 5.42398 32.1643 5.57409 32.2907L5.69894 32.3958C6.59638 33.1544 7.71377 33.5173 9.1919 33.509H9.75947C10.008 33.509 10.2441 33.4006 10.4061 33.2121C10.7052 32.874 11.0044 32.7833 11.4179 32.907C11.6818 32.9895 11.7698 32.973 12.2361 32.7421C12.5265 32.5937 12.8256 32.4122 12.9048 32.3298C13.0368 32.1978 13.0192 32.1649 12.6321 31.8432C11.761 31.1258 10.6084 30.763 9.1919 30.763C8.31206 30.763 8.28567 30.7712 8.13609 30.9774Z" fill="url(#paint29_linear_263_209)"/>
<path d="M29.3134 30.8951C28.6183 31.0683 27.8176 31.4476 27.3425 31.8434C26.9554 32.165 26.9378 32.198 27.0698 32.33C27.149 32.4124 27.4481 32.5939 27.7385 32.7423C28.2048 32.9732 28.2928 32.9897 28.5567 32.9072C28.9702 32.7835 29.2694 32.8742 29.5773 33.2206C29.7391 33.4088 29.9757 33.5162 30.2239 33.5141L30.7827 33.5092C32.252 33.5092 33.3518 33.1629 34.2757 32.4042L34.502 32.2142C34.6028 32.1295 34.5997 31.9735 34.4956 31.8929C34.3812 31.8022 34.0469 31.6208 33.7653 31.4888C33.2902 31.2662 33.211 31.2497 32.9119 31.3321C32.4984 31.4476 32.0673 31.3074 31.8385 30.9775C31.6889 30.7714 31.6625 30.7631 30.7387 30.7714C30.2196 30.7714 29.5861 30.8291 29.3134 30.8951Z" fill="url(#paint30_linear_263_209)"/>
<path d="M10.793 33.4019C10.5026 33.6988 10.6698 33.9049 11.6024 34.408C14.2332 35.8099 16.943 36.4778 19.9873 36.4778C23.0491 36.4778 25.8558 35.7769 28.4601 34.3585C29.296 33.9049 29.4631 33.6905 29.1816 33.4019C28.9704 33.1875 28.8032 33.1958 28.4161 33.4431C27.8354 33.8142 26.2165 34.5317 25.3015 34.8286C21.8261 35.9583 18.1396 35.9583 14.6731 34.8286C13.7404 34.5317 12.1479 33.8142 11.576 33.4514C11.1713 33.1958 11.0042 33.1875 10.793 33.4019Z" fill="url(#paint31_linear_263_209)"/>
<path d="M2.65431 34.1523C2.31998 34.276 1.96804 34.6306 1.85367 34.9439C1.56332 35.7686 2.42556 36.6592 3.34059 36.486C3.71891 36.4118 4.20282 36.0077 4.326 35.6614C4.65154 34.7378 3.61333 33.7977 2.65431 34.1523Z" fill="url(#paint32_linear_263_209)"/>
<path d="M8.06489 35.5047C7.81853 35.7274 7.80094 35.8511 7.94171 36.1562C8.09128 36.4613 8.46961 36.5767 8.79515 36.42C9.20867 36.2221 9.27905 35.8758 8.97991 35.513C8.74236 35.2326 8.35523 35.2244 8.06489 35.5047Z" fill="url(#paint33_linear_263_209)"/>
<path d="M32.3221 35.4882C31.9349 35.8676 32.1901 36.4778 32.7356 36.4778C33.1051 36.4778 33.3867 36.2139 33.3867 35.8676C33.3867 35.3563 32.7004 35.1089 32.3221 35.4882Z" fill="url(#paint34_linear_263_209)"/>
<defs>
<linearGradient id="paint0_linear_263_209" x1="9.38823" y1="1.98285" x2="9.38823" y2="0.757142" gradientUnits="userSpaceOnUse">
<stop stop-color="#FD9149"/>
<stop offset="1" stop-color="#FFD588"/>
</linearGradient>
<linearGradient id="paint1_linear_263_209" x1="30.5893" y1="2.80768" x2="30.5893" y2="1.60801" gradientUnits="userSpaceOnUse">
<stop stop-color="#FD9149"/>
<stop offset="1" stop-color="#FFD588"/>
</linearGradient>
<linearGradient id="paint2_linear_263_209" x1="36.6627" y1="5.84753" x2="36.6627" y2="1.82342" gradientUnits="userSpaceOnUse">
<stop stop-color="#FD9149"/>
<stop offset="1" stop-color="#FFD588"/>
</linearGradient>
<linearGradient id="paint3_linear_263_209" x1="13.2036" y1="8.24823" x2="13.2036" y2="3.38487" gradientUnits="userSpaceOnUse">
<stop stop-color="#FD9149"/>
<stop offset="1" stop-color="#FFD588"/>
</linearGradient>
<linearGradient id="paint4_linear_263_209" x1="26.7709" y1="8.24811" x2="26.7709" y2="3.38474" gradientUnits="userSpaceOnUse">
<stop stop-color="#FD9149"/>
<stop offset="1" stop-color="#FFD588"/>
</linearGradient>
<linearGradient id="paint5_linear_263_209" x1="2.01552" y1="8.49762" x2="2.01552" y2="7.26876" gradientUnits="userSpaceOnUse">
<stop stop-color="#FD9149"/>
<stop offset="1" stop-color="#FFD588"/>
</linearGradient>
<linearGradient id="paint6_linear_263_209" x1="9.04601" y1="10.7241" x2="9.04601" y2="7.7554" gradientUnits="userSpaceOnUse">
<stop stop-color="#FD9149"/>
<stop offset="1" stop-color="#FFD588"/>
</linearGradient>
<linearGradient id="paint7_linear_263_209" x1="30.9415" y1="10.7241" x2="30.9415" y2="7.76343" gradientUnits="userSpaceOnUse">
<stop stop-color="#FD9149"/>
<stop offset="1" stop-color="#FFD588"/>
</linearGradient>
<linearGradient id="paint8_linear_263_209" x1="6.07921" y1="15.5481" x2="6.07921" y2="8.23347" gradientUnits="userSpaceOnUse">
<stop stop-color="#FD9149"/>
<stop offset="1" stop-color="#FFD588"/>
</linearGradient>
<linearGradient id="paint9_linear_263_209" x1="33.9097" y1="15.5072" x2="33.9097" y2="8.22566" gradientUnits="userSpaceOnUse">
<stop stop-color="#FD9149"/>
<stop offset="1" stop-color="#FFD588"/>
</linearGradient>
<linearGradient id="paint10_linear_263_209" x1="19.9837" y1="29.998" x2="19.9837" y2="9.74796" gradientUnits="userSpaceOnUse">
<stop stop-color="#FD9149"/>
<stop offset="1" stop-color="#FFD588"/>
</linearGradient>
<linearGradient id="paint11_linear_263_209" x1="14.8446" y1="17.8015" x2="14.8446" y2="15.4245" gradientUnits="userSpaceOnUse">
<stop stop-color="#FD9149"/>
<stop offset="1" stop-color="#FFD588"/>
</linearGradient>
<linearGradient id="paint12_linear_263_209" x1="19.9871" y1="17.8161" x2="19.9871" y2="15.4246" gradientUnits="userSpaceOnUse">
<stop stop-color="#FD9149"/>
<stop offset="1" stop-color="#FFD588"/>
</linearGradient>
<linearGradient id="paint13_linear_263_209" x1="25.1298" y1="17.8017" x2="25.1298" y2="15.4247" gradientUnits="userSpaceOnUse">
<stop stop-color="#FD9149"/>
<stop offset="1" stop-color="#FFD588"/>
</linearGradient>
<linearGradient id="paint14_linear_263_209" x1="15.5461" y1="25.9801" x2="15.5461" y2="18.5583" gradientUnits="userSpaceOnUse">
<stop stop-color="#FD9149"/>
<stop offset="1" stop-color="#FFD588"/>
</linearGradient>
<linearGradient id="paint15_linear_263_209" x1="19.9868" y1="27.1016" x2="19.9868" y2="18.5582" gradientUnits="userSpaceOnUse">
<stop stop-color="#FD9149"/>
<stop offset="1" stop-color="#FFD588"/>
</linearGradient>
<linearGradient id="paint16_linear_263_209" x1="24.416" y1="25.9279" x2="24.416" y2="18.5582" gradientUnits="userSpaceOnUse">
<stop stop-color="#FD9149"/>
<stop offset="1" stop-color="#FFD588"/>
</linearGradient>
<linearGradient id="paint17_linear_263_209" x1="38.8131" y1="10.8891" x2="38.8131" y2="9.74014" gradientUnits="userSpaceOnUse">
<stop stop-color="#FD9149"/>
<stop offset="1" stop-color="#FFD588"/>
</linearGradient>
<linearGradient id="paint18_linear_263_209" x1="4.36116" y1="17.7316" x2="4.36116" y2="14.2731" gradientUnits="userSpaceOnUse">
<stop stop-color="#FD9149"/>
<stop offset="1" stop-color="#FFD588"/>
</linearGradient>
<linearGradient id="paint19_linear_263_209" x1="35.6145" y1="17.7316" x2="35.6145" y2="14.2716" gradientUnits="userSpaceOnUse">
<stop stop-color="#FD9149"/>
<stop offset="1" stop-color="#FFD588"/>
</linearGradient>
<linearGradient id="paint20_linear_263_209" x1="2.52599" y1="21.5577" x2="2.52599" y2="15.6942" gradientUnits="userSpaceOnUse">
<stop stop-color="#FD9149"/>
<stop offset="1" stop-color="#FFD588"/>
</linearGradient>
<linearGradient id="paint21_linear_263_209" x1="37.4538" y1="21.557" x2="37.4538" y2="15.6902" gradientUnits="userSpaceOnUse">
<stop stop-color="#FD9149"/>
<stop offset="1" stop-color="#FFD588"/>
</linearGradient>
<linearGradient id="paint22_linear_263_209" x1="3.76522" y1="24.6749" x2="3.76522" y2="21.2004" gradientUnits="userSpaceOnUse">
<stop stop-color="#FD9149"/>
<stop offset="1" stop-color="#FFD588"/>
</linearGradient>
<linearGradient id="paint23_linear_263_209" x1="36.2086" y1="24.6749" x2="36.2086" y2="21.2028" gradientUnits="userSpaceOnUse">
<stop stop-color="#FD9149"/>
<stop offset="1" stop-color="#FFD588"/>
</linearGradient>
<linearGradient id="paint24_linear_263_209" x1="3.54356" y1="27.6983" x2="3.54356" y2="24.3542" gradientUnits="userSpaceOnUse">
<stop stop-color="#FD9149"/>
<stop offset="1" stop-color="#FFD588"/>
</linearGradient>
<linearGradient id="paint25_linear_263_209" x1="36.4299" y1="27.6983" x2="36.4299" y2="24.3417" gradientUnits="userSpaceOnUse">
<stop stop-color="#FD9149"/>
<stop offset="1" stop-color="#FFD588"/>
</linearGradient>
<linearGradient id="paint26_linear_263_209" x1="6.50588" y1="30.9868" x2="6.50588" y2="27.7985" gradientUnits="userSpaceOnUse">
<stop stop-color="#FD9149"/>
<stop offset="1" stop-color="#FFD588"/>
</linearGradient>
<linearGradient id="paint27_linear_263_209" x1="33.4688" y1="30.9915" x2="33.4688" y2="27.8142" gradientUnits="userSpaceOnUse">
<stop stop-color="#FD9149"/>
<stop offset="1" stop-color="#FFD588"/>
</linearGradient>
<linearGradient id="paint28_linear_263_209" x1="38.3926" y1="31.6077" x2="38.3926" y2="30.439" gradientUnits="userSpaceOnUse">
<stop stop-color="#FD9149"/>
<stop offset="1" stop-color="#FFD588"/>
</linearGradient>
<linearGradient id="paint29_linear_263_209" x1="9.12341" y1="33.5092" x2="9.12341" y2="30.763" gradientUnits="userSpaceOnUse">
<stop stop-color="#FD9149"/>
<stop offset="1" stop-color="#FFD588"/>
</linearGradient>
<linearGradient id="paint30_linear_263_209" x1="30.8468" y1="33.5175" x2="30.8468" y2="30.7694" gradientUnits="userSpaceOnUse">
<stop stop-color="#FD9149"/>
<stop offset="1" stop-color="#FFD588"/>
</linearGradient>
<linearGradient id="paint31_linear_263_209" x1="19.9856" y1="36.4778" x2="19.9856" y2="33.2489" gradientUnits="userSpaceOnUse">
<stop stop-color="#FD9149"/>
<stop offset="1" stop-color="#FFD588"/>
</linearGradient>
<linearGradient id="paint32_linear_263_209" x1="3.09169" y1="36.5078" x2="3.09169" y2="34.0757" gradientUnits="userSpaceOnUse">
<stop stop-color="#FD9149"/>
<stop offset="1" stop-color="#FFD588"/>
</linearGradient>
<linearGradient id="paint33_linear_263_209" x1="8.5083" y1="36.4898" x2="8.5083" y2="35.2985" gradientUnits="userSpaceOnUse">
<stop stop-color="#FD9149"/>
<stop offset="1" stop-color="#FFD588"/>
</linearGradient>
<linearGradient id="paint34_linear_263_209" x1="32.7613" y1="36.4778" x2="32.7613" y2="35.3044" gradientUnits="userSpaceOnUse">
<stop stop-color="#FD9149"/>
<stop offset="1" stop-color="#FFD588"/>
</linearGradient>
</defs>
</svg>
