<svg width="41" height="37" viewBox="0 0 41 37" fill="none" xmlns="http://www.w3.org/2000/svg">
<path d="M9.88608 0.84479C9.45496 1.0592 9.37577 1.4138 9.67491 1.7684C9.91247 2.04878 10.2996 2.05702 10.5899 1.77664C10.7131 1.66944 10.8099 1.521 10.8099 1.45503C10.8099 1.22413 10.6163 0.927254 10.3964 0.836543C10.1412 0.729339 10.106 0.729339 9.88608 0.84479Z" fill="url(#paint0_linear_263_159)"/>
<path d="M31.0812 1.66145C30.8877 1.75216 30.6941 2.05727 30.6941 2.27992C30.6941 2.47783 31.1076 2.80768 31.354 2.80768C31.6443 2.80768 32.0138 2.46958 32.0138 2.2057C32.0138 1.78514 31.4771 1.48003 31.0812 1.66145Z" fill="url(#paint1_linear_263_159)"/>
<path d="M36.5449 1.97496C36.0962 2.16463 35.5067 2.78311 35.3747 3.20367C34.926 4.59731 36.1402 5.9992 37.6623 5.83427C39.422 5.63636 40.205 3.64073 38.982 2.445C38.8061 2.27183 38.4981 2.05742 38.3046 1.97496C37.8383 1.77704 37.0112 1.7688 36.5449 1.97496Z" fill="url(#paint2_linear_263_159)"/>
<path d="M15.1736 3.50856C14.3113 3.73121 13.6163 4.13529 12.8244 4.86922C12.2085 5.44646 11.9974 5.71035 11.663 6.34532C11.4343 6.76589 11.2495 7.16171 11.2495 7.22769C11.2495 7.29366 11.3463 7.38437 11.4607 7.4256C11.7246 7.51631 11.9534 7.81318 11.9534 8.06057C11.9534 8.30796 12.2173 8.30796 12.8772 8.07706C14.6721 7.45034 16.0798 5.84229 16.5725 3.86316C16.6305 3.6207 16.4444 3.38859 16.1952 3.39242L16.1502 3.39311C15.8511 3.39311 15.4111 3.45084 15.1736 3.50856Z" fill="url(#paint3_linear_263_159)"/>
<path d="M24.9489 3.93725C25.116 4.69592 25.7407 5.86691 26.3302 6.52662C26.8669 7.13685 27.8611 7.80481 28.6266 8.07694C29.2865 8.30784 29.5504 8.30784 29.5504 8.06045C29.5504 7.81306 29.7792 7.51619 30.0431 7.42548C30.1575 7.38424 30.2543 7.29353 30.2543 7.22756C30.2543 7.16159 30.0695 6.75752 29.8407 6.33695C29.5064 5.71847 29.2777 5.42985 28.6706 4.86909C27.5884 3.85479 26.5326 3.38474 25.3184 3.38474C25.0626 3.38474 24.874 3.62373 24.9334 3.87253L24.9489 3.93725Z" fill="url(#paint4_linear_263_159)"/>
<path d="M2.48659 7.34311C2.38981 7.3761 2.25783 7.51629 2.19624 7.64823C2.01147 8.0688 2.31062 8.49762 2.80333 8.49762C3.05849 8.49762 3.41922 8.13478 3.41922 7.87913C3.41922 7.63174 3.05849 7.26065 2.82973 7.2689C2.74174 7.2689 2.59217 7.30188 2.48659 7.34311Z" fill="url(#paint5_linear_263_159)"/>
<path d="M10.3256 8.2172C9.53376 8.81094 8.18761 10.0562 8.11723 10.2541C8.05564 10.4437 8.31079 10.7241 8.54835 10.7241C8.65393 10.7241 9.09385 10.3943 9.61295 9.91597C10.1057 9.47066 10.7303 8.95113 11.0119 8.75322C11.399 8.47284 11.5134 8.34914 11.5134 8.17597C11.5134 7.91208 11.3638 7.7554 11.1263 7.7554C11.0207 7.7554 10.6688 7.96981 10.3256 8.2172Z" fill="url(#paint6_linear_263_159)"/>
<path d="M30.0958 7.85432C30.0342 7.91205 29.9902 8.05224 29.9902 8.17594C29.9902 8.34911 30.1046 8.47281 30.5005 8.75319C30.7733 8.95111 31.398 9.47065 31.8907 9.91596C32.445 10.419 32.8497 10.7241 32.9641 10.7241C33.14 10.7241 33.4216 10.452 33.4216 10.2871C33.4216 10.1469 31.9787 8.81917 31.2572 8.28314C30.5357 7.75536 30.2982 7.66465 30.0958 7.85432Z" fill="url(#paint7_linear_263_159)"/>
<path d="M6.55934 8.66228C5.52113 9.75082 5.10761 11.4826 5.50354 13.1566C5.62671 13.6926 5.6795 13.7998 5.89946 13.907C6.27779 14.0885 6.43616 14.3771 6.39217 14.7894C6.35698 15.0616 6.38337 15.1935 6.52415 15.3502C6.61379 15.4563 6.77533 15.4622 6.87246 15.3629L7.07845 15.1523C7.8879 14.3111 8.4246 12.7608 8.31902 11.6145C8.28382 11.2187 8.23103 11.1032 8.01107 10.9301C7.69433 10.6827 7.61515 10.3611 7.77352 10.0065C7.8879 9.75082 7.8791 9.70134 7.58875 9.18181C7.43038 8.86845 7.21922 8.53034 7.13124 8.43138C7.04727 8.32645 6.8902 8.31919 6.79691 8.41593L6.55934 8.66228Z" fill="url(#paint8_linear_263_159)"/>
<path d="M34.2396 8.62973C34.0813 8.85239 33.8789 9.19873 33.7909 9.39665C33.6413 9.71001 33.6325 9.78422 33.7293 10.0151C33.8877 10.3697 33.7997 10.6831 33.4742 10.947C33.302 11.0823 33.2014 11.2893 33.2014 11.5083V11.9943C33.2102 12.9756 33.4214 13.7177 33.9053 14.4764C34.2044 14.9382 34.7147 15.5072 34.8291 15.5072C34.9699 15.5072 35.1195 15.0949 35.1019 14.732C35.0843 14.3032 35.2075 14.0971 35.6298 13.8992C35.8145 13.8085 35.8849 13.6765 35.9993 13.157C36.3952 11.4747 35.9817 9.71825 34.9347 8.65447L34.8545 8.573C34.6776 8.39344 34.3806 8.42084 34.2396 8.62973Z" fill="url(#paint9_linear_263_159)"/>
<path d="M18.8952 9.86652C17.3819 10.1222 16.0357 10.6334 14.7424 11.4333C12.402 12.9012 10.7567 15.1855 10.1408 17.8326C9.92087 18.7644 9.88568 20.4219 10.0528 21.4033C10.2288 22.4093 10.7039 23.77 11.1526 24.5369C11.3544 24.8946 11.7302 25.1189 12.1408 25.1267L13.6602 25.1554C15.4638 25.1884 15.8422 25.2214 15.9126 25.3203C16.0269 25.4935 16.0181 25.5925 15.8774 25.7821C15.763 25.9223 15.6046 25.9388 13.9153 25.98L13.4171 25.9913C12.9279 26.0023 12.6976 26.6004 13.0531 26.9366C14.1529 27.9757 15.1559 28.6436 16.3701 29.1302C18.7016 30.0703 21.174 30.2517 23.5671 29.6497C25.4852 29.1632 26.9633 28.3468 28.4502 26.9366C28.8057 26.6004 28.5754 26.0023 28.0863 25.9913L27.588 25.98C25.8987 25.9388 25.7403 25.9223 25.626 25.7821C25.4676 25.576 25.4676 25.444 25.6436 25.2873C25.7579 25.1719 26.0835 25.1554 27.8783 25.1554H29.2909C29.7188 25.1554 30.1149 24.9297 30.3331 24.5617C31.6704 22.2939 31.9256 19.2015 30.993 16.5956C29.7524 13.1156 26.4706 10.5015 22.5377 9.85827C21.6139 9.70984 19.8014 9.70984 18.8952 9.86652ZM27.368 14.7402C27.4384 14.8226 27.9839 15.6225 28.5734 16.5131C29.5852 18.0387 29.6468 18.1459 29.5324 18.3356C29.3037 18.7562 20.9628 28.7014 20.8133 28.7508C20.7253 28.7756 20.5757 28.7508 20.4877 28.6849C20.2854 28.5612 12.1821 18.7232 11.9885 18.3686C11.8565 18.1377 11.8653 18.1129 12.9299 16.5131C13.5194 15.6225 14.0649 14.8226 14.1353 14.7402C14.2585 14.6082 14.6896 14.6 20.7517 14.6C26.8137 14.6 27.2449 14.6082 27.368 14.7402Z" fill="url(#paint10_linear_263_159)"/>
<path d="M14.4787 15.7296C14.3643 15.9028 14.0211 16.4058 13.7308 16.8511C13.4317 17.2964 13.1853 17.6922 13.1853 17.7417C13.1853 17.7912 13.8276 17.8077 14.8746 17.7994L15.4515 17.791C16.1509 17.7808 16.7977 17.4179 17.171 16.8264C17.4965 16.3068 17.8308 15.7791 17.9012 15.6471C17.9595 15.5488 17.8886 15.4245 17.7744 15.4245H16.3527H15.0471C14.8185 15.4245 14.605 15.539 14.4787 15.7296Z" fill="url(#paint11_linear_263_159)"/>
<path d="M18.3322 16.5544C17.9451 17.1811 17.6196 17.7171 17.602 17.7501C17.5844 17.7831 19.0009 17.8161 20.7518 17.8161C21.4003 17.8161 22.0029 17.8116 22.5038 17.8042C23.4348 17.7905 23.6606 17.3466 23.1713 16.5544C22.7335 15.8517 21.9642 15.4246 21.1364 15.4246H20.7518H20.3672C19.5393 15.4246 18.77 15.8517 18.3322 16.5544Z" fill="url(#paint12_linear_263_159)"/>
<path d="M23.6024 15.6474C23.6728 15.7793 24.0072 16.3071 24.3327 16.8266C24.7059 17.4182 25.3528 17.7811 26.0522 17.7913L26.6291 17.7997C27.6585 17.8079 28.3183 17.7914 28.3183 17.7419C28.3183 17.7007 27.984 17.1647 27.5793 16.5627C27.1222 15.8762 26.3563 15.4587 25.5315 15.4466L25.1597 15.4412L23.7293 15.4272C23.6157 15.4261 23.5445 15.5496 23.6024 15.6474Z" fill="url(#paint13_linear_263_159)"/>
<path d="M13.2909 18.6408C13.3261 18.748 19.265 25.9801 19.3178 25.9801C19.3678 25.9801 19.3067 25.8925 19.2875 25.8462C19.1523 25.5199 18.593 24.0668 17.9364 22.3599C17.2062 20.4303 16.5639 18.7892 16.5199 18.7068C16.4407 18.5748 16.2911 18.5583 14.8482 18.5583C13.854 18.5583 13.2733 18.5913 13.2909 18.6408Z" fill="url(#paint14_linear_263_159)"/>
<path d="M17.4961 18.6654C17.4961 18.7644 20.6283 27.052 20.6899 27.1015C20.7251 27.1345 24.0069 18.7809 24.0069 18.6572C24.0069 18.583 23.1886 18.5582 20.7515 18.5582C18.112 18.5582 17.4961 18.5747 17.4961 18.6654Z" fill="url(#paint15_linear_263_159)"/>
<path d="M23.7084 21.8733C22.9869 23.704 22.327 25.378 22.2303 25.6089C22.1159 25.8975 22.0983 25.98 22.1863 25.8975C22.415 25.6749 28.2307 18.6489 28.2307 18.6077C28.2307 18.583 27.5093 18.5582 26.6206 18.5582C25.6493 18.5582 24.777 19.1528 24.4219 20.0569L23.7084 21.8733Z" fill="url(#paint16_linear_263_159)"/>
<path d="M39.1402 9.8995C38.7443 10.2706 39.0434 10.8891 39.6065 10.8891C39.9848 10.8891 40.196 10.6747 40.196 10.2871C40.196 10.0727 40.1432 9.95722 40.0024 9.86651C39.7297 9.68508 39.3514 9.70158 39.1402 9.8995Z" fill="url(#paint17_linear_263_159)"/>
<path d="M5.27524 14.3855C5.13447 14.5504 4.67695 15.7462 4.4218 16.6203C4.23703 17.2882 4.22823 17.3707 4.34261 17.5439C4.49219 17.75 4.83532 17.7995 4.9849 17.6263C5.03769 17.5769 5.16086 17.2223 5.25765 16.8429C5.36323 16.4718 5.58319 15.8121 5.74156 15.3916C6.01431 14.6906 6.0319 14.5999 5.91753 14.4432C5.76795 14.2453 5.42481 14.2123 5.27524 14.3855Z" fill="url(#paint18_linear_263_159)"/>
<path d="M35.5861 14.4432C35.4717 14.5999 35.4893 14.6906 35.762 15.3916C35.9204 15.8121 36.1403 16.4718 36.2459 16.8429C36.3427 17.2223 36.4659 17.5769 36.5187 17.6263C36.6682 17.7995 37.0114 17.75 37.161 17.5439C37.2841 17.3625 37.2753 17.28 37.029 16.4801C36.7386 15.507 36.3691 14.5422 36.2283 14.3772C36.0788 14.2123 35.7356 14.2453 35.5861 14.4432Z" fill="url(#paint19_linear_263_159)"/>
<path d="M1.0081 15.7957C0.911315 16.0431 0.955307 17.1069 1.08728 17.5687C1.39523 18.6737 2.28386 19.8612 3.33087 20.5787C3.718 20.8425 3.81478 20.8755 4.11392 20.826C4.55384 20.7601 4.94097 20.9332 5.08175 21.2713C5.24012 21.6177 5.49527 21.6589 5.56566 21.3456C5.72403 20.6034 5.56566 19.7045 5.11694 18.7809C4.85299 18.2532 4.76501 18.146 4.59784 18.146C4.48346 18.146 4.2635 18.047 4.11392 17.9151C3.90276 17.7419 3.84118 17.6182 3.83238 17.3708C3.82358 17.0739 3.77959 17.0162 3.28688 16.6781C2.75897 16.307 1.72956 15.804 1.29844 15.7133C1.13127 15.672 1.05209 15.6968 1.0081 15.7957Z" fill="url(#paint20_linear_263_159)"/>
<path d="M39.9323 15.7876C39.3868 15.9772 38.7621 16.3071 38.2167 16.6782C37.7239 17.0163 37.68 17.074 37.6712 17.3709C37.6624 17.6183 37.6008 17.742 37.3896 17.9151C37.24 18.0471 37.0201 18.146 36.9057 18.146C36.7385 18.146 36.6505 18.2532 36.3866 18.781C36.2194 19.1356 36.0347 19.6221 35.9819 19.8613C35.8763 20.3313 35.8587 21.1312 35.9379 21.4116C36.0083 21.659 36.281 21.5765 36.4218 21.2714C36.5626 20.9333 36.9497 20.7601 37.3808 20.8261C37.6712 20.8756 37.7855 20.8426 38.1111 20.6282C38.7973 20.1911 39.6508 19.2428 40.0203 18.5254C40.4074 17.7584 40.5482 17.2059 40.5482 16.4555C40.5482 15.6391 40.5042 15.5896 39.9323 15.7876Z" fill="url(#paint21_linear_263_159)"/>
<path d="M3.99906 21.3785C3.85828 21.5929 3.91107 22.3516 4.17502 23.671C4.35979 24.6029 4.65894 24.8997 5.03727 24.5039C5.17804 24.3637 5.16924 24.2978 5.01087 23.4154C4.91409 22.8959 4.80851 22.2196 4.77332 21.9145C4.72932 21.5022 4.67653 21.3373 4.55336 21.2795C4.307 21.1476 4.13983 21.1806 3.99906 21.3785Z" fill="url(#paint22_linear_263_159)"/>
<path d="M36.9234 21.2796C36.8266 21.3373 36.765 21.527 36.721 21.9228C36.6946 22.2279 36.589 22.8959 36.4922 23.4154C36.3338 24.2978 36.3251 24.3637 36.4658 24.5039C36.8442 24.8997 37.1433 24.6029 37.3281 23.671C37.592 22.3516 37.6448 21.593 37.5041 21.3786C37.3721 21.1889 37.1697 21.1477 36.9234 21.2796Z" fill="url(#paint23_linear_263_159)"/>
<path d="M1.14891 24.4215C0.708997 24.5204 0.708997 24.5864 1.15771 25.3121C1.90557 26.516 3.53327 27.4726 5.15217 27.6788C5.53929 27.72 5.63608 27.7035 5.80324 27.5551C6.06719 27.3242 6.63909 27.3159 6.88544 27.5386C7.04381 27.6788 7.1318 27.6953 7.40454 27.6293C7.58931 27.5963 7.76528 27.5386 7.79167 27.5139C7.81807 27.4891 7.73008 27.2582 7.59811 27.0026C7.1054 26.0625 5.5217 24.7761 5.09938 24.9822C4.74744 25.1636 4.46589 25.0894 4.09636 24.7266C3.8703 24.5041 3.56787 24.3763 3.25078 24.3692L2.63584 24.3555C2.02875 24.3472 1.36008 24.3802 1.14891 24.4215Z" fill="url(#paint24_linear_263_159)"/>
<path d="M37.9176 24.3884C37.8032 24.4132 37.5656 24.5699 37.3809 24.7513C37.0377 25.0894 36.7474 25.1554 36.4043 24.9822C35.9819 24.776 34.3982 26.0625 33.9055 27.0026C33.7735 27.2582 33.6856 27.4891 33.712 27.5139C33.7384 27.5386 33.9055 27.5963 34.0903 27.6293C34.3542 27.687 34.4598 27.6705 34.6358 27.5386C34.9261 27.3242 35.4452 27.3324 35.7004 27.5551C35.8676 27.7035 35.9643 27.72 36.3515 27.6788C37.9792 27.4726 39.5893 26.5243 40.3459 25.312C40.8034 24.5699 40.8034 24.5286 40.2843 24.4214C39.8532 24.3307 38.3487 24.3142 37.9176 24.3884Z" fill="url(#paint25_linear_263_159)"/>
<path d="M6.07619 27.8933C5.84743 28.1077 5.97061 28.4211 6.70087 29.4436C7.25517 30.2188 7.80067 30.862 7.95904 30.9527C8.13501 31.0434 8.41656 30.9445 8.52214 30.7548C8.63652 30.5569 8.57493 30.4414 7.95025 29.6828C7.68629 29.3612 7.32556 28.8746 7.14959 28.5943C6.96483 28.3139 6.76246 28.017 6.69208 27.9346C6.5425 27.7696 6.22576 27.7531 6.07619 27.8933Z" fill="url(#paint26_linear_263_159)"/>
<path d="M34.8206 27.9344C34.7414 28.0169 34.5391 28.3138 34.3543 28.5942C34.1783 28.8745 33.8176 29.3611 33.5537 29.6827C33.2985 29.996 33.0433 30.3259 32.9906 30.4249C32.8146 30.73 33.1489 31.0846 33.5009 30.9691C33.6856 30.9031 34.2311 30.2517 34.9086 29.2868C35.4893 28.454 35.6125 28.1736 35.4717 27.9674C35.3485 27.7778 34.979 27.7613 34.8206 27.9344Z" fill="url(#paint27_linear_263_159)"/>
<path d="M38.7182 30.6228C38.1463 31.1919 39.0174 31.967 39.6156 31.4228C39.7124 31.332 39.7828 31.1506 39.7828 31.0022C39.7828 30.4909 39.0966 30.2435 38.7182 30.6228Z" fill="url(#paint28_linear_263_159)"/>
<path d="M8.90074 30.9774C8.67199 31.3072 8.24086 31.4474 7.82734 31.332C7.46661 31.233 7.16746 31.332 6.37561 31.8267C6.20742 31.9278 6.18863 32.1643 6.33874 32.2907L6.46359 32.3958C7.36103 33.1544 8.47842 33.5173 9.95655 33.509H10.5241C10.7726 33.509 11.0088 33.4006 11.1707 33.2121C11.4699 32.874 11.769 32.7833 12.1825 32.907C12.4465 32.9895 12.5345 32.973 13.0008 32.7421C13.2911 32.5937 13.5903 32.4122 13.6695 32.3298C13.8014 32.1978 13.7838 32.1649 13.3967 31.8432C12.5257 31.1258 11.3731 30.763 9.95655 30.763C9.07671 30.763 9.05032 30.7712 8.90074 30.9774Z" fill="url(#paint29_linear_263_159)"/>
<path d="M30.078 30.8951C29.3829 31.0683 28.5823 31.4476 28.1072 31.8434C27.7201 32.165 27.7025 32.198 27.8344 32.33C27.9136 32.4124 28.2128 32.5939 28.5031 32.7423C28.9694 32.9732 29.0574 32.9897 29.3214 32.9072C29.7349 32.7835 30.034 32.8742 30.342 33.2206C30.5038 33.4088 30.7403 33.5162 30.9886 33.5141L31.5473 33.5092C33.0167 33.5092 34.1165 33.1629 35.0403 32.4042L35.2666 32.2142C35.3674 32.1295 35.3643 31.9735 35.2603 31.8929C35.1459 31.8022 34.8115 31.6208 34.53 31.4888C34.0549 31.2662 33.9757 31.2497 33.6766 31.3321C33.263 31.4476 32.8319 31.3074 32.6032 30.9775C32.4536 30.7714 32.4272 30.7631 31.5034 30.7714C30.9842 30.7714 30.3508 30.8291 30.078 30.8951Z" fill="url(#paint30_linear_263_159)"/>
<path d="M11.5576 33.4019C11.2673 33.6988 11.4345 33.9049 12.3671 34.408C14.9978 35.8099 17.7077 36.4778 20.7519 36.4778C23.8138 36.4778 26.6204 35.7769 29.2248 34.3585C30.0606 33.9049 30.2278 33.6905 29.9462 33.4019C29.7351 33.1875 29.5679 33.1958 29.1808 33.4431C28.6001 33.8142 26.9812 34.5317 26.0661 34.8286C22.5908 35.9583 18.9043 35.9583 15.4377 34.8286C14.5051 34.5317 12.9126 33.8142 12.3407 33.4514C11.936 33.1958 11.7688 33.1875 11.5576 33.4019Z" fill="url(#paint31_linear_263_159)"/>
<path d="M3.41896 34.1523C3.08463 34.276 2.73269 34.6306 2.61831 34.9439C2.32797 35.7686 3.19021 36.6592 4.10523 36.486C4.48356 36.4118 4.96747 36.0077 5.09065 35.6614C5.41619 34.7378 4.37798 33.7977 3.41896 34.1523Z" fill="url(#paint32_linear_263_159)"/>
<path d="M8.82953 35.5047C8.58318 35.7274 8.56558 35.8511 8.70636 36.1562C8.85593 36.4613 9.23426 36.5767 9.55979 36.42C9.97331 36.2221 10.0437 35.8758 9.74456 35.513C9.507 35.2326 9.11988 35.2244 8.82953 35.5047Z" fill="url(#paint33_linear_263_159)"/>
<path d="M33.0867 35.4882C32.6996 35.8676 32.9547 36.4778 33.5002 36.4778C33.8698 36.4778 34.1513 36.2139 34.1513 35.8676C34.1513 35.3563 33.465 35.1089 33.0867 35.4882Z" fill="url(#paint34_linear_263_159)"/>
<defs>
<linearGradient id="paint0_linear_263_159" x1="10.1529" y1="1.98285" x2="10.1529" y2="0.757142" gradientUnits="userSpaceOnUse">
<stop stop-color="#FD9149"/>
<stop offset="1" stop-color="#FFD588"/>
</linearGradient>
<linearGradient id="paint1_linear_263_159" x1="31.354" y1="2.80768" x2="31.354" y2="1.60801" gradientUnits="userSpaceOnUse">
<stop stop-color="#FD9149"/>
<stop offset="1" stop-color="#FFD588"/>
</linearGradient>
<linearGradient id="paint2_linear_263_159" x1="37.4274" y1="5.84753" x2="37.4274" y2="1.82342" gradientUnits="userSpaceOnUse">
<stop stop-color="#FD9149"/>
<stop offset="1" stop-color="#FFD588"/>
</linearGradient>
<linearGradient id="paint3_linear_263_159" x1="13.9682" y1="8.24823" x2="13.9682" y2="3.38487" gradientUnits="userSpaceOnUse">
<stop stop-color="#FD9149"/>
<stop offset="1" stop-color="#FFD588"/>
</linearGradient>
<linearGradient id="paint4_linear_263_159" x1="27.5356" y1="8.24811" x2="27.5356" y2="3.38474" gradientUnits="userSpaceOnUse">
<stop stop-color="#FD9149"/>
<stop offset="1" stop-color="#FFD588"/>
</linearGradient>
<linearGradient id="paint5_linear_263_159" x1="2.78017" y1="8.49762" x2="2.78017" y2="7.26876" gradientUnits="userSpaceOnUse">
<stop stop-color="#FD9149"/>
<stop offset="1" stop-color="#FFD588"/>
</linearGradient>
<linearGradient id="paint6_linear_263_159" x1="9.81066" y1="10.7241" x2="9.81066" y2="7.7554" gradientUnits="userSpaceOnUse">
<stop stop-color="#FD9149"/>
<stop offset="1" stop-color="#FFD588"/>
</linearGradient>
<linearGradient id="paint7_linear_263_159" x1="31.7059" y1="10.7241" x2="31.7059" y2="7.76343" gradientUnits="userSpaceOnUse">
<stop stop-color="#FD9149"/>
<stop offset="1" stop-color="#FFD588"/>
</linearGradient>
<linearGradient id="paint8_linear_263_159" x1="6.84386" y1="15.5481" x2="6.84386" y2="8.23347" gradientUnits="userSpaceOnUse">
<stop stop-color="#FD9149"/>
<stop offset="1" stop-color="#FFD588"/>
</linearGradient>
<linearGradient id="paint9_linear_263_159" x1="34.6743" y1="15.5072" x2="34.6743" y2="8.22566" gradientUnits="userSpaceOnUse">
<stop stop-color="#FD9149"/>
<stop offset="1" stop-color="#FFD588"/>
</linearGradient>
<linearGradient id="paint10_linear_263_159" x1="20.7484" y1="29.998" x2="20.7484" y2="9.74796" gradientUnits="userSpaceOnUse">
<stop stop-color="#FD9149"/>
<stop offset="1" stop-color="#FFD588"/>
</linearGradient>
<linearGradient id="paint11_linear_263_159" x1="15.6092" y1="17.8015" x2="15.6092" y2="15.4245" gradientUnits="userSpaceOnUse">
<stop stop-color="#FD9149"/>
<stop offset="1" stop-color="#FFD588"/>
</linearGradient>
<linearGradient id="paint12_linear_263_159" x1="20.7518" y1="17.8161" x2="20.7518" y2="15.4246" gradientUnits="userSpaceOnUse">
<stop stop-color="#FD9149"/>
<stop offset="1" stop-color="#FFD588"/>
</linearGradient>
<linearGradient id="paint13_linear_263_159" x1="25.8944" y1="17.8017" x2="25.8944" y2="15.4247" gradientUnits="userSpaceOnUse">
<stop stop-color="#FD9149"/>
<stop offset="1" stop-color="#FFD588"/>
</linearGradient>
<linearGradient id="paint14_linear_263_159" x1="16.3107" y1="25.9801" x2="16.3107" y2="18.5583" gradientUnits="userSpaceOnUse">
<stop stop-color="#FD9149"/>
<stop offset="1" stop-color="#FFD588"/>
</linearGradient>
<linearGradient id="paint15_linear_263_159" x1="20.7515" y1="27.1016" x2="20.7515" y2="18.5582" gradientUnits="userSpaceOnUse">
<stop stop-color="#FD9149"/>
<stop offset="1" stop-color="#FFD588"/>
</linearGradient>
<linearGradient id="paint16_linear_263_159" x1="25.1807" y1="25.9279" x2="25.1807" y2="18.5582" gradientUnits="userSpaceOnUse">
<stop stop-color="#FD9149"/>
<stop offset="1" stop-color="#FFD588"/>
</linearGradient>
<linearGradient id="paint17_linear_263_159" x1="39.5777" y1="10.8891" x2="39.5777" y2="9.74014" gradientUnits="userSpaceOnUse">
<stop stop-color="#FD9149"/>
<stop offset="1" stop-color="#FFD588"/>
</linearGradient>
<linearGradient id="paint18_linear_263_159" x1="5.12581" y1="17.7316" x2="5.12581" y2="14.2731" gradientUnits="userSpaceOnUse">
<stop stop-color="#FD9149"/>
<stop offset="1" stop-color="#FFD588"/>
</linearGradient>
<linearGradient id="paint19_linear_263_159" x1="36.3791" y1="17.7316" x2="36.3791" y2="14.2716" gradientUnits="userSpaceOnUse">
<stop stop-color="#FD9149"/>
<stop offset="1" stop-color="#FFD588"/>
</linearGradient>
<linearGradient id="paint20_linear_263_159" x1="3.29064" y1="21.5577" x2="3.29064" y2="15.6942" gradientUnits="userSpaceOnUse">
<stop stop-color="#FD9149"/>
<stop offset="1" stop-color="#FFD588"/>
</linearGradient>
<linearGradient id="paint21_linear_263_159" x1="38.2184" y1="21.557" x2="38.2184" y2="15.6902" gradientUnits="userSpaceOnUse">
<stop stop-color="#FD9149"/>
<stop offset="1" stop-color="#FFD588"/>
</linearGradient>
<linearGradient id="paint22_linear_263_159" x1="4.52987" y1="24.6749" x2="4.52987" y2="21.2004" gradientUnits="userSpaceOnUse">
<stop stop-color="#FD9149"/>
<stop offset="1" stop-color="#FFD588"/>
</linearGradient>
<linearGradient id="paint23_linear_263_159" x1="36.9732" y1="24.6749" x2="36.9732" y2="21.2028" gradientUnits="userSpaceOnUse">
<stop stop-color="#FD9149"/>
<stop offset="1" stop-color="#FFD588"/>
</linearGradient>
<linearGradient id="paint24_linear_263_159" x1="4.30821" y1="27.6983" x2="4.30821" y2="24.3542" gradientUnits="userSpaceOnUse">
<stop stop-color="#FD9149"/>
<stop offset="1" stop-color="#FFD588"/>
</linearGradient>
<linearGradient id="paint25_linear_263_159" x1="37.1945" y1="27.6983" x2="37.1945" y2="24.3417" gradientUnits="userSpaceOnUse">
<stop stop-color="#FD9149"/>
<stop offset="1" stop-color="#FFD588"/>
</linearGradient>
<linearGradient id="paint26_linear_263_159" x1="7.27053" y1="30.9868" x2="7.27053" y2="27.7985" gradientUnits="userSpaceOnUse">
<stop stop-color="#FD9149"/>
<stop offset="1" stop-color="#FFD588"/>
</linearGradient>
<linearGradient id="paint27_linear_263_159" x1="34.2335" y1="30.9915" x2="34.2335" y2="27.8142" gradientUnits="userSpaceOnUse">
<stop stop-color="#FD9149"/>
<stop offset="1" stop-color="#FFD588"/>
</linearGradient>
<linearGradient id="paint28_linear_263_159" x1="39.1573" y1="31.6077" x2="39.1573" y2="30.439" gradientUnits="userSpaceOnUse">
<stop stop-color="#FD9149"/>
<stop offset="1" stop-color="#FFD588"/>
</linearGradient>
<linearGradient id="paint29_linear_263_159" x1="9.88806" y1="33.5092" x2="9.88806" y2="30.763" gradientUnits="userSpaceOnUse">
<stop stop-color="#FD9149"/>
<stop offset="1" stop-color="#FFD588"/>
</linearGradient>
<linearGradient id="paint30_linear_263_159" x1="31.6114" y1="33.5175" x2="31.6114" y2="30.7694" gradientUnits="userSpaceOnUse">
<stop stop-color="#FD9149"/>
<stop offset="1" stop-color="#FFD588"/>
</linearGradient>
<linearGradient id="paint31_linear_263_159" x1="20.7503" y1="36.4778" x2="20.7503" y2="33.2489" gradientUnits="userSpaceOnUse">
<stop stop-color="#FD9149"/>
<stop offset="1" stop-color="#FFD588"/>
</linearGradient>
<linearGradient id="paint32_linear_263_159" x1="3.85634" y1="36.5078" x2="3.85634" y2="34.0757" gradientUnits="userSpaceOnUse">
<stop stop-color="#FD9149"/>
<stop offset="1" stop-color="#FFD588"/>
</linearGradient>
<linearGradient id="paint33_linear_263_159" x1="9.27295" y1="36.4898" x2="9.27295" y2="35.2985" gradientUnits="userSpaceOnUse">
<stop stop-color="#FD9149"/>
<stop offset="1" stop-color="#FFD588"/>
</linearGradient>
<linearGradient id="paint34_linear_263_159" x1="33.526" y1="36.4778" x2="33.526" y2="35.3044" gradientUnits="userSpaceOnUse">
<stop stop-color="#FD9149"/>
<stop offset="1" stop-color="#FFD588"/>
</linearGradient>
</defs>
</svg>
