<svg width="41" height="37" viewBox="0 0 41 37" fill="none" xmlns="http://www.w3.org/2000/svg">
<path d="M9.35653 0.84479C8.92541 1.0592 8.84623 1.4138 9.14537 1.7684C9.38293 2.04878 9.77006 2.05702 10.0604 1.77664C10.1836 1.66944 10.2804 1.521 10.2804 1.45503C10.2804 1.22413 10.0868 0.927254 9.86684 0.836543C9.61169 0.729339 9.57649 0.729339 9.35653 0.84479Z" fill="url(#paint0_linear_263_253)"/>
<path d="M30.5517 1.66145C30.3581 1.75216 30.1646 2.05727 30.1646 2.27992C30.1646 2.47783 30.5781 2.80768 30.8244 2.80768C31.1148 2.80768 31.4843 2.46958 31.4843 2.2057C31.4843 1.78514 30.9476 1.48003 30.5517 1.66145Z" fill="url(#paint1_linear_263_253)"/>
<path d="M36.0154 1.97496C35.5666 2.16463 34.9772 2.78311 34.8452 3.20367C34.3965 4.59731 35.6106 5.9992 37.1327 5.83427C38.8924 5.63636 39.6755 3.64073 38.4525 2.445C38.2765 2.27183 37.9686 2.05742 37.775 1.97496C37.3087 1.77704 36.4817 1.7688 36.0154 1.97496Z" fill="url(#paint2_linear_263_253)"/>
<path d="M14.644 3.50856C13.7818 3.73121 13.0867 4.13529 12.2949 4.86922C11.679 5.44646 11.4678 5.71035 11.1335 6.34532C10.9047 6.76589 10.72 7.16171 10.72 7.22769C10.72 7.29366 10.8168 7.38437 10.9311 7.4256C11.1951 7.51631 11.4238 7.81318 11.4238 8.06057C11.4238 8.30796 11.6878 8.30796 12.3477 8.07706C14.1425 7.45034 15.5503 5.84229 16.043 3.86316C16.101 3.6207 15.9149 3.38859 15.6656 3.39242L15.6207 3.39311C15.3215 3.39311 14.8816 3.45084 14.644 3.50856Z" fill="url(#paint3_linear_263_253)"/>
<path d="M24.4193 3.93725C24.5865 4.69592 25.2112 5.86691 25.8007 6.52662C26.3374 7.13685 27.3316 7.80481 28.097 8.07694C28.7569 8.30784 29.0209 8.30784 29.0209 8.06045C29.0209 7.81306 29.2496 7.51619 29.5136 7.42548C29.6279 7.38424 29.7247 7.29353 29.7247 7.22756C29.7247 7.16159 29.54 6.75752 29.3112 6.33695C28.9769 5.71847 28.7481 5.42985 28.141 4.86909C27.0588 3.85479 26.003 3.38474 24.7889 3.38474C24.5331 3.38474 24.3444 3.62373 24.4039 3.87253L24.4193 3.93725Z" fill="url(#paint4_linear_263_253)"/>
<path d="M1.95705 7.34311C1.86027 7.3761 1.72829 7.51629 1.6667 7.64823C1.48193 8.0688 1.78108 8.49762 2.27379 8.49762C2.52895 8.49762 2.88968 8.13478 2.88968 7.87913C2.88968 7.63174 2.52895 7.26065 2.30019 7.2689C2.2122 7.2689 2.06263 7.30188 1.95705 7.34311Z" fill="url(#paint5_linear_263_253)"/>
<path d="M9.79608 8.2172C9.00422 8.81094 7.65807 10.0562 7.58768 10.2541C7.5261 10.4437 7.78125 10.7241 8.01881 10.7241C8.12439 10.7241 8.5643 10.3943 9.08341 9.91597C9.57612 9.47066 10.2008 8.95113 10.4824 8.75322C10.8695 8.47284 10.9839 8.34914 10.9839 8.17597C10.9839 7.91208 10.8343 7.7554 10.5967 7.7554C10.4911 7.7554 10.1392 7.96981 9.79608 8.2172Z" fill="url(#paint6_linear_263_253)"/>
<path d="M29.5665 7.85432C29.5049 7.91205 29.4609 8.05224 29.4609 8.17594C29.4609 8.34911 29.5753 8.47281 29.9712 8.75319C30.244 8.95111 30.8687 9.47065 31.3614 9.91596C31.9157 10.419 32.3204 10.7241 32.4348 10.7241C32.6108 10.7241 32.8923 10.452 32.8923 10.2871C32.8923 10.1469 31.4494 8.81917 30.7279 8.28314C30.0064 7.75536 29.7689 7.66465 29.5665 7.85432Z" fill="url(#paint7_linear_263_253)"/>
<path d="M6.0298 8.66228C4.99159 9.75082 4.57807 11.4826 4.974 13.1566C5.09717 13.6926 5.14996 13.7998 5.36992 13.907C5.74825 14.0885 5.90662 14.3771 5.86263 14.7894C5.82744 15.0616 5.85383 15.1935 5.99461 15.3502C6.08424 15.4563 6.24579 15.4622 6.34292 15.3629L6.5489 15.1523C7.35836 14.3111 7.89506 12.7608 7.78948 11.6145C7.75428 11.2187 7.70149 11.1032 7.48153 10.9301C7.16479 10.6827 7.08561 10.3611 7.24398 10.0065C7.35836 9.75082 7.34956 9.70134 7.05921 9.18181C6.90084 8.86845 6.68968 8.53034 6.60169 8.43138C6.51773 8.32645 6.36066 8.31919 6.26737 8.41593L6.0298 8.66228Z" fill="url(#paint8_linear_263_253)"/>
<path d="M33.7101 8.62973C33.5517 8.85239 33.3494 9.19873 33.2614 9.39665C33.1118 9.71001 33.103 9.78422 33.1998 10.0151C33.3582 10.3697 33.2702 10.6831 32.9446 10.947C32.7724 11.0823 32.6719 11.2893 32.6719 11.5083V11.9943C32.6807 12.9756 32.8918 13.7177 33.3757 14.4764C33.6749 14.9382 34.1852 15.5072 34.2996 15.5072C34.4404 15.5072 34.5899 15.0949 34.5723 14.732C34.5547 14.3032 34.6779 14.0971 35.1002 13.8992C35.285 13.8085 35.3554 13.6765 35.4698 13.157C35.8657 11.4747 35.4522 9.71825 34.4052 8.65447L34.3249 8.573C34.1481 8.39344 33.8511 8.42084 33.7101 8.62973Z" fill="url(#paint9_linear_263_253)"/>
<path d="M18.3657 9.86652C16.8523 10.1222 15.5062 10.6334 14.2128 11.4333C11.8725 12.9012 10.2272 15.1855 9.61129 17.8326C9.39133 18.7644 9.35613 20.4219 9.5233 21.4033C9.69927 22.4093 10.1744 23.77 10.6231 24.5369C10.8248 24.8946 11.2007 25.1189 11.6112 25.1267L13.1306 25.1554C14.9343 25.1884 15.3126 25.2214 15.383 25.3203C15.4974 25.4935 15.4886 25.5925 15.3478 25.7821C15.2334 25.9223 15.0751 25.9388 13.3858 25.98L12.8875 25.9913C12.3983 26.0023 12.1681 26.6004 12.5235 26.9366C13.6233 27.9757 14.6264 28.6436 15.8405 29.1302C18.1721 30.0703 20.6444 30.2517 23.0376 29.6497C24.9556 29.1632 26.4338 28.3468 27.9207 26.9366C28.2762 26.6004 28.0459 26.0023 27.5567 25.9913L27.0585 25.98C25.3692 25.9388 25.2108 25.9223 25.0964 25.7821C24.9381 25.576 24.9381 25.444 25.114 25.2873C25.2284 25.1719 25.5539 25.1554 27.3488 25.1554H28.7614C29.1893 25.1554 29.5854 24.9297 29.8036 24.5617C31.1409 22.2939 31.3961 19.2015 30.4634 16.5956C29.2229 13.1156 25.9411 10.5015 22.0082 9.85827C21.0844 9.70984 19.2719 9.70984 18.3657 9.86652ZM26.8385 14.7402C26.9089 14.8226 27.4544 15.6225 28.0439 16.5131C29.0557 18.0387 29.1173 18.1459 29.0029 18.3356C28.7741 18.7562 20.4333 28.7014 20.2837 28.7508C20.1957 28.7756 20.0462 28.7508 19.9582 28.6849C19.7558 28.5612 11.6525 18.7232 11.4589 18.3686C11.327 18.1377 11.3358 18.1129 12.4004 16.5131C12.9899 15.6225 13.5354 14.8226 13.6057 14.7402C13.7289 14.6082 14.16 14.6 20.2221 14.6C26.2842 14.6 26.7153 14.6082 26.8385 14.7402Z" fill="url(#paint10_linear_263_253)"/>
<path d="M13.9491 15.7296C13.8347 15.9028 13.4916 16.4058 13.2013 16.8511C12.9021 17.2964 12.6558 17.6922 12.6558 17.7417C12.6558 17.7912 13.298 17.8077 14.345 17.7994L14.922 17.791C15.6213 17.7808 16.2682 17.4179 16.6414 16.8264C16.9669 16.3068 17.3013 15.7791 17.3717 15.6471C17.4299 15.5488 17.3591 15.4245 17.2448 15.4245H15.8232H14.5176C14.2889 15.4245 14.0755 15.539 13.9491 15.7296Z" fill="url(#paint11_linear_263_253)"/>
<path d="M17.8027 16.5544C17.4156 17.1811 17.09 17.7171 17.0724 17.7501C17.0548 17.7831 18.4714 17.8161 20.2222 17.8161C20.8707 17.8161 21.4733 17.8116 21.9742 17.8042C22.9052 17.7905 23.1311 17.3466 22.6418 16.5544C22.204 15.8517 21.4347 15.4246 20.6068 15.4246H20.2222H19.8376C19.0098 15.4246 18.2405 15.8517 17.8027 16.5544Z" fill="url(#paint12_linear_263_253)"/>
<path d="M23.0729 15.6474C23.1433 15.7793 23.4776 16.3071 23.8032 16.8266C24.1764 17.4182 24.8232 17.7811 25.5226 17.7913L26.0995 17.7997C27.1289 17.8079 27.7888 17.7914 27.7888 17.7419C27.7888 17.7007 27.4545 17.1647 27.0497 16.5627C26.5926 15.8762 25.8267 15.4587 25.002 15.4466L24.6302 15.4412L23.1997 15.4272C23.0861 15.4261 23.015 15.5496 23.0729 15.6474Z" fill="url(#paint13_linear_263_253)"/>
<path d="M12.7614 18.6408C12.7966 18.748 18.7354 25.9801 18.7882 25.9801C18.8383 25.9801 18.7772 25.8925 18.758 25.8462C18.6228 25.5199 18.0634 24.0668 17.4069 22.3599C16.6766 20.4303 16.0344 18.7892 15.9904 18.7068C15.9112 18.5748 15.7616 18.5583 14.3187 18.5583C13.3245 18.5583 12.7438 18.5913 12.7614 18.6408Z" fill="url(#paint14_linear_263_253)"/>
<path d="M16.9666 18.6654C16.9666 18.7644 20.0988 27.052 20.1604 27.1015C20.1955 27.1345 23.4773 18.7809 23.4773 18.6572C23.4773 18.583 22.6591 18.5582 20.2219 18.5582C17.5824 18.5582 16.9666 18.5747 16.9666 18.6654Z" fill="url(#paint15_linear_263_253)"/>
<path d="M23.1788 21.8733C22.4574 23.704 21.7975 25.378 21.7007 25.6089C21.5863 25.8975 21.5687 25.98 21.6567 25.8975C21.8855 25.6749 27.7012 18.6489 27.7012 18.6077C27.7012 18.583 26.9797 18.5582 26.0911 18.5582C25.1198 18.5582 24.2475 19.1528 23.8923 20.0569L23.1788 21.8733Z" fill="url(#paint16_linear_263_253)"/>
<path d="M38.6107 9.8995C38.2147 10.2706 38.5139 10.8891 39.077 10.8891C39.4553 10.8891 39.6665 10.6747 39.6665 10.2871C39.6665 10.0727 39.6137 9.95722 39.4729 9.86651C39.2001 9.68508 38.8218 9.70158 38.6107 9.8995Z" fill="url(#paint17_linear_263_253)"/>
<path d="M4.7457 14.3855C4.60493 14.5504 4.14741 15.7462 3.89226 16.6203C3.70749 17.2882 3.69869 17.3707 3.81307 17.5439C3.96264 17.75 4.30578 17.7995 4.45535 17.6263C4.50814 17.5769 4.63132 17.2223 4.7281 16.8429C4.83369 16.4718 5.05365 15.8121 5.21202 15.3916C5.48477 14.6906 5.50236 14.5999 5.38798 14.4432C5.23841 14.2453 4.89527 14.2123 4.7457 14.3855Z" fill="url(#paint18_linear_263_253)"/>
<path d="M35.0565 14.4432C34.9421 14.5999 34.9597 14.6906 35.2325 15.3916C35.3908 15.8121 35.6108 16.4718 35.7164 16.8429C35.8132 17.2223 35.9363 17.5769 35.9891 17.6263C36.1387 17.7995 36.4818 17.75 36.6314 17.5439C36.7546 17.3625 36.7458 17.28 36.4994 16.4801C36.2091 15.507 35.8396 14.5422 35.6988 14.3772C35.5492 14.2123 35.2061 14.2453 35.0565 14.4432Z" fill="url(#paint19_linear_263_253)"/>
<path d="M0.478556 15.7957C0.381774 16.0431 0.425766 17.1069 0.557741 17.5687C0.865685 18.6737 1.75432 19.8612 2.80133 20.5787C3.18846 20.8425 3.28524 20.8755 3.58438 20.826C4.0243 20.7601 4.41143 20.9332 4.55221 21.2713C4.71058 21.6177 4.96573 21.6589 5.03612 21.3456C5.19449 20.6034 5.03612 19.7045 4.5874 18.7809C4.32345 18.2532 4.23546 18.146 4.0683 18.146C3.95392 18.146 3.73396 18.047 3.58438 17.9151C3.37322 17.7419 3.31163 17.6182 3.30284 17.3708C3.29404 17.0739 3.25005 17.0162 2.75734 16.6781C2.22943 16.307 1.20002 15.804 0.768903 15.7133C0.601733 15.672 0.522548 15.6968 0.478556 15.7957Z" fill="url(#paint20_linear_263_253)"/>
<path d="M39.403 15.7876C38.8575 15.9772 38.2329 16.3071 37.6874 16.6782C37.1946 17.0163 37.1507 17.074 37.1419 17.3709C37.1331 17.6183 37.0715 17.742 36.8603 17.9151C36.7107 18.0471 36.4908 18.146 36.3764 18.146C36.2092 18.146 36.1213 18.2532 35.8573 18.781C35.6901 19.1356 35.5054 19.6221 35.4526 19.8613C35.347 20.3313 35.3294 21.1312 35.4086 21.4116C35.479 21.659 35.7517 21.5765 35.8925 21.2714C36.0333 20.9333 36.4204 20.7601 36.8515 20.8261C37.1419 20.8756 37.2562 20.8426 37.5818 20.6282C38.268 20.1911 39.1215 19.2428 39.491 18.5254C39.8781 17.7584 40.0189 17.2059 40.0189 16.4555C40.0189 15.6391 39.9749 15.5896 39.403 15.7876Z" fill="url(#paint21_linear_263_253)"/>
<path d="M3.46951 21.3785C3.32874 21.5929 3.38153 22.3516 3.64548 23.671C3.83025 24.6029 4.1294 24.8997 4.50773 24.5039C4.6485 24.3637 4.6397 24.2978 4.48133 23.4154C4.38455 22.8959 4.27897 22.2196 4.24377 21.9145C4.19978 21.5022 4.14699 21.3373 4.02381 21.2795C3.77746 21.1476 3.61029 21.1806 3.46951 21.3785Z" fill="url(#paint22_linear_263_253)"/>
<path d="M36.3938 21.2796C36.297 21.3373 36.2354 21.527 36.1914 21.9228C36.165 22.2279 36.0595 22.8959 35.9627 23.4154C35.8043 24.2978 35.7955 24.3637 35.9363 24.5039C36.3146 24.8997 36.6138 24.6029 36.7985 23.671C37.0625 22.3516 37.1153 21.593 36.9745 21.3786C36.8425 21.1889 36.6402 21.1477 36.3938 21.2796Z" fill="url(#paint23_linear_263_253)"/>
<path d="M0.619374 24.4215C0.179456 24.5204 0.179456 24.5864 0.628172 25.3121C1.37603 26.516 3.00373 27.4726 4.62262 27.6788C5.00975 27.72 5.10653 27.7035 5.2737 27.5551C5.53765 27.3242 6.10955 27.3159 6.3559 27.5386C6.51427 27.6788 6.60225 27.6953 6.875 27.6293C7.05977 27.5963 7.23574 27.5386 7.26213 27.5139C7.28853 27.4891 7.20054 27.2582 7.06857 27.0026C6.57586 26.0625 4.99216 24.7761 4.56984 24.9822C4.2179 25.1636 3.93635 25.0894 3.56682 24.7266C3.34076 24.5041 3.03833 24.3763 2.72124 24.3692L2.1063 24.3555C1.49921 24.3472 0.830535 24.3802 0.619374 24.4215Z" fill="url(#paint24_linear_263_253)"/>
<path d="M37.388 24.3884C37.2737 24.4132 37.0361 24.5699 36.8513 24.7513C36.5082 25.0894 36.2179 25.1554 35.8747 24.9822C35.4524 24.776 33.8687 26.0625 33.376 27.0026C33.244 27.2582 33.156 27.4891 33.1824 27.5139C33.2088 27.5386 33.376 27.5963 33.5607 27.6293C33.8247 27.687 33.9303 27.6705 34.1062 27.5386C34.3966 27.3242 34.9157 27.3324 35.1708 27.5551C35.338 27.7035 35.4348 27.72 35.8219 27.6788C37.4496 27.4726 39.0597 26.5243 39.8164 25.312C40.2739 24.5699 40.2739 24.5286 39.7548 24.4214C39.3237 24.3307 37.8192 24.3142 37.388 24.3884Z" fill="url(#paint25_linear_263_253)"/>
<path d="M5.54665 27.8933C5.31789 28.1077 5.44107 28.4211 6.17133 29.4436C6.72563 30.2188 7.27113 30.862 7.4295 30.9527C7.60547 31.0434 7.88702 30.9445 7.9926 30.7548C8.10698 30.5569 8.04539 30.4414 7.4207 29.6828C7.15675 29.3612 6.79602 28.8746 6.62005 28.5943C6.43529 28.3139 6.23292 28.017 6.16254 27.9346C6.01296 27.7696 5.69622 27.7531 5.54665 27.8933Z" fill="url(#paint26_linear_263_253)"/>
<path d="M34.2911 27.9344C34.2119 28.0169 34.0095 28.3138 33.8248 28.5942C33.6488 28.8745 33.2881 29.3611 33.0241 29.6827C32.769 29.996 32.5138 30.3259 32.461 30.4249C32.285 30.73 32.6194 31.0846 32.9713 30.9691C33.1561 30.9031 33.7016 30.2517 34.3791 29.2868C34.9598 28.454 35.083 28.1736 34.9422 27.9674C34.819 27.7778 34.4495 27.7613 34.2911 27.9344Z" fill="url(#paint27_linear_263_253)"/>
<path d="M38.1887 30.6228C37.6168 31.1919 38.4878 31.967 39.0861 31.4228C39.1829 31.332 39.2533 31.1506 39.2533 31.0022C39.2533 30.4909 38.567 30.2435 38.1887 30.6228Z" fill="url(#paint28_linear_263_253)"/>
<path d="M8.3712 30.9774C8.14244 31.3072 7.71132 31.4474 7.2978 31.332C6.93707 31.233 6.63792 31.332 5.84607 31.8267C5.67788 31.9278 5.65908 32.1643 5.8092 32.2907L5.93405 32.3958C6.83149 33.1544 7.94888 33.5173 9.42701 33.509H9.99458C10.2431 33.509 10.4792 33.4006 10.6412 33.2121C10.9403 32.874 11.2395 32.7833 11.653 32.907C11.917 32.9895 12.0049 32.973 12.4712 32.7421C12.7616 32.5937 13.0607 32.4122 13.1399 32.3298C13.2719 32.1978 13.2543 32.1649 12.8672 31.8432C11.9961 31.1258 10.8435 30.763 9.42701 30.763C8.54717 30.763 8.52077 30.7712 8.3712 30.9774Z" fill="url(#paint29_linear_263_253)"/>
<path d="M29.5485 30.8951C28.8534 31.0683 28.0528 31.4476 27.5776 31.8434C27.1905 32.165 27.1729 32.198 27.3049 32.33C27.3841 32.4124 27.6832 32.5939 27.9736 32.7423C28.4399 32.9732 28.5279 32.9897 28.7918 32.9072C29.2053 32.7835 29.5045 32.8742 29.8124 33.2206C29.9742 33.4088 30.2108 33.5162 30.459 33.5141L31.0178 33.5092C32.4871 33.5092 33.5869 33.1629 34.5108 32.4042L34.7371 32.2142C34.8379 32.1295 34.8348 31.9735 34.7307 31.8929C34.6163 31.8022 34.282 31.6208 34.0005 31.4888C33.5253 31.2662 33.4462 31.2497 33.147 31.3321C32.7335 31.4476 32.3024 31.3074 32.0736 30.9775C31.924 30.7714 31.8976 30.7631 30.9738 30.7714C30.4547 30.7714 29.8212 30.8291 29.5485 30.8951Z" fill="url(#paint30_linear_263_253)"/>
<path d="M11.0281 33.4019C10.7378 33.6988 10.9049 33.9049 11.8375 34.408C14.4683 35.8099 17.1782 36.4778 20.2224 36.4778C23.2842 36.4778 26.0909 35.7769 28.6952 34.3585C29.5311 33.9049 29.6982 33.6905 29.4167 33.4019C29.2055 33.1875 29.0384 33.1958 28.6512 33.4431C28.0705 33.8142 26.4516 34.5317 25.5366 34.8286C22.0613 35.9583 18.3747 35.9583 14.9082 34.8286C13.9756 34.5317 12.383 33.8142 11.8112 33.4514C11.4064 33.1958 11.2393 33.1875 11.0281 33.4019Z" fill="url(#paint31_linear_263_253)"/>
<path d="M2.88942 34.1523C2.55509 34.276 2.20315 34.6306 2.08877 34.9439C1.79843 35.7686 2.66067 36.6592 3.57569 36.486C3.95402 36.4118 4.43793 36.0077 4.56111 35.6614C4.88665 34.7378 3.84844 33.7977 2.88942 34.1523Z" fill="url(#paint32_linear_263_253)"/>
<path d="M8.29999 35.5047C8.05364 35.7274 8.03604 35.8511 8.17682 36.1562C8.32639 36.4613 8.70472 36.5767 9.03025 36.42C9.44377 36.2221 9.51416 35.8758 9.21502 35.513C8.97746 35.2326 8.59034 35.2244 8.29999 35.5047Z" fill="url(#paint33_linear_263_253)"/>
<path d="M32.5572 35.4882C32.17 35.8676 32.4252 36.4778 32.9707 36.4778C33.3402 36.4778 33.6218 36.2139 33.6218 35.8676C33.6218 35.3563 32.9355 35.1089 32.5572 35.4882Z" fill="url(#paint34_linear_263_253)"/>
<defs>
<linearGradient id="paint0_linear_263_253" x1="9.62334" y1="1.98285" x2="9.62334" y2="0.757142" gradientUnits="userSpaceOnUse">
<stop stop-color="#FD9149"/>
<stop offset="1" stop-color="#FFD588"/>
</linearGradient>
<linearGradient id="paint1_linear_263_253" x1="30.8244" y1="2.80768" x2="30.8244" y2="1.60801" gradientUnits="userSpaceOnUse">
<stop stop-color="#FD9149"/>
<stop offset="1" stop-color="#FFD588"/>
</linearGradient>
<linearGradient id="paint2_linear_263_253" x1="36.8978" y1="5.84753" x2="36.8978" y2="1.82342" gradientUnits="userSpaceOnUse">
<stop stop-color="#FD9149"/>
<stop offset="1" stop-color="#FFD588"/>
</linearGradient>
<linearGradient id="paint3_linear_263_253" x1="13.4387" y1="8.24823" x2="13.4387" y2="3.38487" gradientUnits="userSpaceOnUse">
<stop stop-color="#FD9149"/>
<stop offset="1" stop-color="#FFD588"/>
</linearGradient>
<linearGradient id="paint4_linear_263_253" x1="27.006" y1="8.24811" x2="27.006" y2="3.38474" gradientUnits="userSpaceOnUse">
<stop stop-color="#FD9149"/>
<stop offset="1" stop-color="#FFD588"/>
</linearGradient>
<linearGradient id="paint5_linear_263_253" x1="2.25063" y1="8.49762" x2="2.25063" y2="7.26876" gradientUnits="userSpaceOnUse">
<stop stop-color="#FD9149"/>
<stop offset="1" stop-color="#FFD588"/>
</linearGradient>
<linearGradient id="paint6_linear_263_253" x1="9.28111" y1="10.7241" x2="9.28111" y2="7.7554" gradientUnits="userSpaceOnUse">
<stop stop-color="#FD9149"/>
<stop offset="1" stop-color="#FFD588"/>
</linearGradient>
<linearGradient id="paint7_linear_263_253" x1="31.1766" y1="10.7241" x2="31.1766" y2="7.76343" gradientUnits="userSpaceOnUse">
<stop stop-color="#FD9149"/>
<stop offset="1" stop-color="#FFD588"/>
</linearGradient>
<linearGradient id="paint8_linear_263_253" x1="6.31432" y1="15.5481" x2="6.31432" y2="8.23347" gradientUnits="userSpaceOnUse">
<stop stop-color="#FD9149"/>
<stop offset="1" stop-color="#FFD588"/>
</linearGradient>
<linearGradient id="paint9_linear_263_253" x1="34.1448" y1="15.5072" x2="34.1448" y2="8.22566" gradientUnits="userSpaceOnUse">
<stop stop-color="#FD9149"/>
<stop offset="1" stop-color="#FFD588"/>
</linearGradient>
<linearGradient id="paint10_linear_263_253" x1="20.2188" y1="29.998" x2="20.2188" y2="9.74796" gradientUnits="userSpaceOnUse">
<stop stop-color="#FD9149"/>
<stop offset="1" stop-color="#FFD588"/>
</linearGradient>
<linearGradient id="paint11_linear_263_253" x1="15.0797" y1="17.8015" x2="15.0797" y2="15.4245" gradientUnits="userSpaceOnUse">
<stop stop-color="#FD9149"/>
<stop offset="1" stop-color="#FFD588"/>
</linearGradient>
<linearGradient id="paint12_linear_263_253" x1="20.2222" y1="17.8161" x2="20.2222" y2="15.4246" gradientUnits="userSpaceOnUse">
<stop stop-color="#FD9149"/>
<stop offset="1" stop-color="#FFD588"/>
</linearGradient>
<linearGradient id="paint13_linear_263_253" x1="25.3649" y1="17.8017" x2="25.3649" y2="15.4247" gradientUnits="userSpaceOnUse">
<stop stop-color="#FD9149"/>
<stop offset="1" stop-color="#FFD588"/>
</linearGradient>
<linearGradient id="paint14_linear_263_253" x1="15.7812" y1="25.9801" x2="15.7812" y2="18.5583" gradientUnits="userSpaceOnUse">
<stop stop-color="#FD9149"/>
<stop offset="1" stop-color="#FFD588"/>
</linearGradient>
<linearGradient id="paint15_linear_263_253" x1="20.2219" y1="27.1016" x2="20.2219" y2="18.5582" gradientUnits="userSpaceOnUse">
<stop stop-color="#FD9149"/>
<stop offset="1" stop-color="#FFD588"/>
</linearGradient>
<linearGradient id="paint16_linear_263_253" x1="24.6511" y1="25.9279" x2="24.6511" y2="18.5582" gradientUnits="userSpaceOnUse">
<stop stop-color="#FD9149"/>
<stop offset="1" stop-color="#FFD588"/>
</linearGradient>
<linearGradient id="paint17_linear_263_253" x1="39.0482" y1="10.8891" x2="39.0482" y2="9.74014" gradientUnits="userSpaceOnUse">
<stop stop-color="#FD9149"/>
<stop offset="1" stop-color="#FFD588"/>
</linearGradient>
<linearGradient id="paint18_linear_263_253" x1="4.59627" y1="17.7316" x2="4.59627" y2="14.2731" gradientUnits="userSpaceOnUse">
<stop stop-color="#FD9149"/>
<stop offset="1" stop-color="#FFD588"/>
</linearGradient>
<linearGradient id="paint19_linear_263_253" x1="35.8496" y1="17.7316" x2="35.8496" y2="14.2716" gradientUnits="userSpaceOnUse">
<stop stop-color="#FD9149"/>
<stop offset="1" stop-color="#FFD588"/>
</linearGradient>
<linearGradient id="paint20_linear_263_253" x1="2.7611" y1="21.5577" x2="2.7611" y2="15.6942" gradientUnits="userSpaceOnUse">
<stop stop-color="#FD9149"/>
<stop offset="1" stop-color="#FFD588"/>
</linearGradient>
<linearGradient id="paint21_linear_263_253" x1="37.6891" y1="21.557" x2="37.6891" y2="15.6902" gradientUnits="userSpaceOnUse">
<stop stop-color="#FD9149"/>
<stop offset="1" stop-color="#FFD588"/>
</linearGradient>
<linearGradient id="paint22_linear_263_253" x1="4.00033" y1="24.6749" x2="4.00033" y2="21.2004" gradientUnits="userSpaceOnUse">
<stop stop-color="#FD9149"/>
<stop offset="1" stop-color="#FFD588"/>
</linearGradient>
<linearGradient id="paint23_linear_263_253" x1="36.4437" y1="24.6749" x2="36.4437" y2="21.2028" gradientUnits="userSpaceOnUse">
<stop stop-color="#FD9149"/>
<stop offset="1" stop-color="#FFD588"/>
</linearGradient>
<linearGradient id="paint24_linear_263_253" x1="3.77867" y1="27.6983" x2="3.77867" y2="24.3542" gradientUnits="userSpaceOnUse">
<stop stop-color="#FD9149"/>
<stop offset="1" stop-color="#FFD588"/>
</linearGradient>
<linearGradient id="paint25_linear_263_253" x1="36.665" y1="27.6983" x2="36.665" y2="24.3417" gradientUnits="userSpaceOnUse">
<stop stop-color="#FD9149"/>
<stop offset="1" stop-color="#FFD588"/>
</linearGradient>
<linearGradient id="paint26_linear_263_253" x1="6.74099" y1="30.9868" x2="6.74099" y2="27.7985" gradientUnits="userSpaceOnUse">
<stop stop-color="#FD9149"/>
<stop offset="1" stop-color="#FFD588"/>
</linearGradient>
<linearGradient id="paint27_linear_263_253" x1="33.7039" y1="30.9915" x2="33.7039" y2="27.8142" gradientUnits="userSpaceOnUse">
<stop stop-color="#FD9149"/>
<stop offset="1" stop-color="#FFD588"/>
</linearGradient>
<linearGradient id="paint28_linear_263_253" x1="38.6277" y1="31.6077" x2="38.6277" y2="30.439" gradientUnits="userSpaceOnUse">
<stop stop-color="#FD9149"/>
<stop offset="1" stop-color="#FFD588"/>
</linearGradient>
<linearGradient id="paint29_linear_263_253" x1="9.35852" y1="33.5092" x2="9.35852" y2="30.763" gradientUnits="userSpaceOnUse">
<stop stop-color="#FD9149"/>
<stop offset="1" stop-color="#FFD588"/>
</linearGradient>
<linearGradient id="paint30_linear_263_253" x1="31.0819" y1="33.5175" x2="31.0819" y2="30.7694" gradientUnits="userSpaceOnUse">
<stop stop-color="#FD9149"/>
<stop offset="1" stop-color="#FFD588"/>
</linearGradient>
<linearGradient id="paint31_linear_263_253" x1="20.2208" y1="36.4778" x2="20.2208" y2="33.2489" gradientUnits="userSpaceOnUse">
<stop stop-color="#FD9149"/>
<stop offset="1" stop-color="#FFD588"/>
</linearGradient>
<linearGradient id="paint32_linear_263_253" x1="3.3268" y1="36.5078" x2="3.3268" y2="34.0757" gradientUnits="userSpaceOnUse">
<stop stop-color="#FD9149"/>
<stop offset="1" stop-color="#FFD588"/>
</linearGradient>
<linearGradient id="paint33_linear_263_253" x1="8.7434" y1="36.4898" x2="8.7434" y2="35.2985" gradientUnits="userSpaceOnUse">
<stop stop-color="#FD9149"/>
<stop offset="1" stop-color="#FFD588"/>
</linearGradient>
<linearGradient id="paint34_linear_263_253" x1="32.9964" y1="36.4778" x2="32.9964" y2="35.3044" gradientUnits="userSpaceOnUse">
<stop stop-color="#FD9149"/>
<stop offset="1" stop-color="#FFD588"/>
</linearGradient>
</defs>
</svg>
