<svg width="17" height="10" viewBox="0 0 17 10" fill="none" xmlns="http://www.w3.org/2000/svg">
<path opacity="0.9" fill-rule="evenodd" clip-rule="evenodd" d="M16.6006 1.15746C16.469 0.883767 16.1947 0.606929 15.9242 0.474489C15.7461 0.38729 15.6778 0.373188 15.4403 0.374433C14.9079 0.377163 15.1392 0.175772 11.7077 3.62516L8.66626 6.68245L5.62484 3.63888C2.33965 0.351311 2.42053 0.424236 2.00036 0.371737C1.51132 0.310632 0.97392 0.63603 0.748474 1.12978C0.572763 1.51452 0.60442 1.98397 0.828448 2.31631C0.881259 2.39463 2.50265 4.04087 4.4315 5.97462C8.40916 9.96227 8.10343 9.69394 8.6693 9.69394C9.22364 9.69394 8.93121 9.95191 12.9291 5.93623C16.91 1.93762 16.6742 2.20578 16.6949 1.65228C16.7043 1.40288 16.6948 1.35308 16.6006 1.15746Z" fill="#FEAA6F"/>
</svg>
