<svg width="14" height="14" viewBox="0 0 14 14" fill="none" xmlns="http://www.w3.org/2000/svg">
<path fill-rule="evenodd" clip-rule="evenodd" d="M7.90439 1.03554C7.19865 1.17504 6.1833 1.73762 5.60337 2.31038C5.11758 2.79012 4.32827 4.10378 4.32827 4.43251C4.32827 4.49589 4.10487 4.62733 3.83192 4.72465C0.569375 5.8874 -0.367785 10.0893 2.08615 12.5517C4.54009 15.0142 8.72741 14.0738 9.88614 10.7999C9.98312 10.526 10.1141 10.3018 10.1773 10.3018C10.2404 10.3018 10.6223 10.136 11.026 9.93345C13.9329 8.47408 14.5533 4.64996 12.2569 2.34564C11.1069 1.19165 9.52423 0.715278 7.90439 1.03554ZM10.5733 2.07918C11.3725 2.45233 12.1582 3.23714 12.5208 4.02441C12.7775 4.58189 12.8073 4.75756 12.8073 5.71642C12.8073 6.66621 12.7764 6.85237 12.5328 7.37409C12.2055 8.07504 11.3615 8.95157 10.7256 9.25105C10.4743 9.36935 10.2571 9.45535 10.2429 9.442C10.2287 9.42875 10.1723 9.06304 10.1175 8.62937C9.84684 6.48788 8.15155 4.7705 6.03596 4.49487C5.62734 4.44158 5.25985 4.39664 5.21933 4.39491C5.10316 4.38991 5.3161 3.90834 5.64927 3.4225C6.05799 2.82629 6.73662 2.28389 7.44865 1.98441C7.95343 1.77196 8.1684 1.7418 8.99935 1.76625C9.8049 1.79009 10.0646 1.84166 10.5733 2.07918ZM6.99282 5.54075C7.28659 5.67709 7.64118 5.88547 7.78081 6.00387L8.03467 6.21908L6.48611 6.22254L4.93754 6.22591V5.70174V5.17748L5.69812 5.23526C6.18817 5.27245 6.64868 5.38107 6.99282 5.54075ZM4.22561 6.26799C4.49887 8.43077 6.19284 10.1306 8.34814 10.4048C8.78031 10.4599 9.14476 10.5164 9.15796 10.5307C9.17126 10.5449 9.08556 10.7629 8.96767 11.0151C8.66922 11.6532 7.79573 12.5002 7.0972 12.8286C6.57729 13.073 6.39177 13.104 5.44527 13.104C4.49044 13.104 4.31538 13.0742 3.76977 12.8189C2.97011 12.4446 2.18465 11.6598 1.82224 10.873C1.56553 10.3155 1.53578 10.1398 1.53578 9.18094C1.53578 8.23115 1.56665 8.04498 1.81026 7.52327C2.13307 6.83199 2.97254 5.95404 3.61187 5.63898C3.86015 5.5167 4.07746 5.4307 4.09462 5.44802C4.11188 5.46534 4.17077 5.83431 4.22561 6.26799ZM8.96919 7.39773C9.09561 7.6219 9.1999 7.84078 9.20081 7.88409C9.20173 7.92739 8.39272 7.95032 7.40316 7.93504L5.60378 7.90722L5.37388 7.49963C5.24746 7.27545 5.14317 7.05658 5.14226 7.01327C5.14134 6.96996 5.95035 6.94704 6.93991 6.96232L8.73929 6.99014L8.96919 7.39773ZM9.40553 9.19561V9.71988L8.64495 9.6621C7.85422 9.60208 7.04633 9.30393 6.56226 8.89349L6.3084 8.67828L7.85696 8.67481L9.40553 8.67145V9.19561Z" fill="#FD9149"/>
</svg>
