<svg width="21" height="19" viewBox="0 0 21 19" fill="none" xmlns="http://www.w3.org/2000/svg">
<path fill-rule="evenodd" clip-rule="evenodd" d="M4.93355 0.987588C2.46814 1.37512 0.57403 3.39938 0.343031 5.89352C0.256615 6.8261 0.433131 7.74883 0.883407 8.71872C1.18776 9.37435 1.6569 9.88568 5.58635 13.8443C9.43251 17.7191 9.99187 18.2417 10.2926 18.2417C10.5934 18.2417 11.1528 17.7191 14.9989 13.8443C18.9449 9.86899 19.3973 9.37558 19.7123 8.70382C20.4476 7.13577 20.4321 5.48033 19.6675 3.92796C18.7443 2.05338 16.9859 0.968766 14.8702 0.968766C13.1627 0.968766 12.1293 1.4531 10.5552 2.99135C9.66385 3.86242 9.56683 3.99787 9.56683 4.37095C9.56694 4.67154 9.63482 4.83254 9.81513 4.95914C10.2949 5.29648 10.5403 5.18366 11.6356 4.12223C12.9786 2.82071 13.5988 2.5134 14.8839 2.51262C15.6798 2.51206 15.8798 2.55597 16.5187 2.87158C17.3677 3.29093 17.96 3.90219 18.3721 4.78403C18.6176 5.30959 18.6662 5.57119 18.6662 6.36597C18.6662 7.99004 18.6246 8.04751 14.2163 12.4999C12.1268 14.6104 10.3611 16.3371 10.2926 16.3371C10.2242 16.3371 8.4585 14.6104 6.36901 12.4999C1.93334 8.01984 1.91749 7.99777 1.92129 6.30995C1.92341 5.37994 1.95288 5.24707 2.30089 4.59939C2.50833 4.21309 2.87811 3.71577 3.12251 3.49416C4.56846 2.18323 6.79985 2.16139 8.25541 3.44386C8.76497 3.89278 9.26236 3.88841 9.60032 3.43221C9.79236 3.17295 9.80464 3.08613 9.68919 2.80649C9.55343 2.47755 8.78417 1.82629 8.17134 1.52133C7.21932 1.04775 5.91694 0.832979 4.93355 0.987588ZM4.72209 3.29261C3.69693 3.66961 2.86136 4.75411 2.69813 5.91951C2.63985 6.33583 2.66977 6.47969 2.86739 6.73177C3.30371 7.28836 4.20784 7.00132 4.20784 6.30637C4.20784 5.50184 4.88922 4.74784 5.73049 4.62124C6.5904 4.49184 6.94701 3.84898 6.4408 3.34101C6.17161 3.07089 5.38516 3.04871 4.72209 3.29261Z" fill="#FD9149"/>
</svg>
