<svg width="14" height="17" viewBox="0 0 14 17" fill="none" xmlns="http://www.w3.org/2000/svg">
<path fill-rule="evenodd" clip-rule="evenodd" d="M6.61212 0.00783722C6.56074 0.0150817 6.39959 0.0374618 6.254 0.0575457C4.50727 0.298746 2.89213 1.63247 2.2359 3.37556C1.97503 4.0685 1.88304 4.58713 1.8813 5.37451C1.87955 6.16386 2.00508 6.79901 2.30073 7.49677C2.46008 7.8728 2.46095 7.87432 3.47815 9.52925C3.9424 10.2846 4.31198 10.9122 4.2994 10.924C4.28682 10.9357 4.13641 10.9708 3.96513 11.0018C2.81472 11.2107 1.63653 11.6426 0.958554 12.1038C0.276533 12.5678 -0.0842365 13.2361 0.016754 13.8484C0.121762 14.4851 0.620455 15.0429 1.47385 15.4783C3.69863 16.6131 7.76528 16.8818 10.8247 16.096C12.1535 15.7547 13.1936 15.2132 13.64 14.6301C14.2477 13.8364 14.0768 12.906 13.1968 12.2173C12.5584 11.7177 11.29 11.2297 10.0376 11.0019C9.86637 10.9708 9.71589 10.9356 9.70325 10.9238C9.69061 10.912 10.0876 10.2408 10.5854 9.4321C11.0831 8.62344 11.5511 7.83082 11.6252 7.67073C11.8139 7.26285 11.9407 6.871 12.0373 6.39655C12.1095 6.04229 12.1204 5.91286 12.1208 5.40685C12.121 5.08667 12.1035 4.70828 12.0818 4.56598C11.7305 2.25992 10.0385 0.465368 7.8422 0.0695443C7.57937 0.0221967 6.79112 -0.0173566 6.61212 0.00783722ZM7.83391 1.05479C9.42697 1.39395 10.6774 2.64804 11.0768 4.30725C11.3185 5.31134 11.1962 6.42902 10.7467 7.32158C10.6024 7.60825 7.03253 13.4423 7.00139 13.4424C6.99282 13.4424 6.32018 12.3562 5.50662 11.0287C4.69305 9.70105 3.869 8.35876 3.67539 8.04576C3.48179 7.73276 3.27315 7.36753 3.21174 7.23413C2.35196 5.36584 2.88488 3.0995 4.47684 1.85413C5.09281 1.37225 5.78386 1.08732 6.59655 0.980143C6.84166 0.947835 7.52512 0.98907 7.83391 1.05479ZM6.70555 2.95076C6.67129 2.95897 6.56681 2.98184 6.47339 3.00157C5.79629 3.14435 5.13719 3.72614 4.84761 4.43661C4.71987 4.75 4.68203 4.9606 4.68203 5.35834C4.68203 5.75607 4.71987 5.96667 4.84761 6.28006C5.1361 6.98785 5.75004 7.5329 6.47199 7.72216C6.69434 7.78047 7.30844 7.78047 7.53079 7.72216C8.25273 7.5329 8.86668 6.98785 9.15517 6.28006C9.28291 5.96667 9.32074 5.75607 9.32074 5.35834C9.32074 5.14799 9.30197 4.90915 9.27749 4.80854C9.06626 3.93953 8.4137 3.2483 7.5775 3.00787C7.4198 2.96253 6.81996 2.92324 6.70555 2.95076ZM7.25391 3.936C7.98504 4.07998 8.49706 4.8248 8.37801 5.57108C8.27677 6.20551 7.81713 6.68287 7.20623 6.78801C6.30576 6.94296 5.47557 6.08077 5.62476 5.1456C5.75515 4.32837 6.48706 3.78497 7.25391 3.936ZM5.772 13.2653C6.40211 14.292 6.67385 14.7076 6.74977 14.7607C6.82211 14.8114 6.90055 14.8343 7.00139 14.8343C7.10222 14.8343 7.18067 14.8114 7.25301 14.7607C7.3289 14.7076 7.60135 14.2912 8.23165 13.265L9.10515 11.8428L9.22885 11.8518C9.29686 11.8569 9.5207 11.8903 9.72623 11.9263C11.1831 12.1809 12.2721 12.6161 12.7982 13.154C13.1626 13.5265 13.1626 13.7541 12.7984 14.1228C12.1212 14.8082 10.5679 15.3071 8.44945 15.5197C7.91774 15.573 6.04953 15.5728 5.53776 15.5193C4.40067 15.4004 3.54756 15.2327 2.78177 14.9774C2.04046 14.7302 1.53267 14.4551 1.20438 14.1228C0.864103 13.7784 0.84791 13.5516 1.13945 13.2145C1.55724 12.7314 2.54354 12.2866 3.78012 12.0236C4.2914 11.9148 4.77988 11.8304 4.85265 11.8383C4.87834 11.8411 5.29205 12.4832 5.772 13.2653Z" fill="#FD9149"/>
</svg>
