<svg width="7" height="11" viewBox="0 0 7 11" fill="none" xmlns="http://www.w3.org/2000/svg">
<path fill-rule="evenodd" clip-rule="evenodd" d="M3.96508 0.0124906C3.81724 0.0361067 3.5831 0.124709 3.44873 0.207902C2.71954 0.659349 2.58767 1.62804 3.17379 2.22757C3.43698 2.49681 3.7401 2.63531 4.11482 2.65755C4.77788 2.69692 5.37821 2.2811 5.55043 1.66312C5.5969 1.49631 5.5969 1.16482 5.55043 0.998006C5.41757 0.521275 5.01377 0.145728 4.5128 0.0329611C4.36246 -0.000878428 4.10831 -0.010363 3.96508 0.0124906ZM3.50339 3.1817C2.93254 3.22841 1.97074 3.47606 1.14871 3.788C0.781076 3.92751 0.260786 4.16951 0.166102 4.24503L0.100342 4.29748L0.12435 4.5477C0.137577 4.68532 0.15295 4.8105 0.15854 4.8259C0.165178 4.8442 0.223127 4.82571 0.326172 4.77245C0.498944 4.68315 0.922179 4.5441 1.20289 4.48443C1.47284 4.42704 2.01512 4.42769 2.19999 4.4856C2.40207 4.54891 2.556 4.68363 2.60451 4.83962C2.62535 4.90664 2.6424 4.99493 2.6424 5.03585C2.6424 5.1488 2.51639 5.61831 1.90039 7.80058C1.3082 9.89844 1.27851 10.0295 1.34437 10.2541C1.49223 10.7584 2.3379 10.8521 3.70876 10.516C4.49485 10.3233 5.50781 9.94536 5.94424 9.68194C6.07195 9.60485 6.08764 9.58702 6.07674 9.53162C6.06992 9.49701 6.05707 9.3749 6.04816 9.26021C6.03925 9.14553 6.02148 9.05169 6.00863 9.05169C5.9958 9.05169 5.90978 9.08794 5.81747 9.13221C5.61719 9.22832 5.23054 9.34933 4.95235 9.403C4.65542 9.46027 4.16885 9.45786 3.97756 9.39816C3.6552 9.29757 3.4978 9.03784 3.56134 8.71129C3.59892 8.518 4.26239 6.102 4.59972 4.92997C4.87666 3.96776 4.90159 3.82859 4.83503 3.61645C4.77224 3.41634 4.55537 3.26306 4.24659 3.20058C4.09256 3.16943 3.75754 3.1609 3.50339 3.1817Z" fill="#F77433"/>
</svg>
