<svg width="21" height="19" viewBox="0 0 21 19" fill="none" xmlns="http://www.w3.org/2000/svg">
<path fill-rule="evenodd" clip-rule="evenodd" d="M4.70161 0.987588C2.2362 1.37512 0.342097 3.39938 0.111097 5.89352C0.0246816 6.8261 0.201197 7.74883 0.651473 8.71872C0.955826 9.37435 1.42497 9.88568 5.35442 13.8443C9.20058 17.7191 9.75994 18.2417 10.0607 18.2417C10.3615 18.2417 10.9209 17.7191 14.767 13.8443C18.713 9.86899 19.1654 9.37558 19.4803 8.70382C20.2157 7.13577 20.2001 5.48033 19.4356 3.92796C18.5124 2.05338 16.754 0.968766 14.6383 0.968766C12.9307 0.968766 11.8973 1.4531 10.3233 2.99135C9.43191 3.86242 9.33489 3.99787 9.33489 4.37095C9.335 4.67154 9.40289 4.83254 9.5832 4.95914C10.0629 5.29648 10.3084 5.18366 11.4036 4.12223C12.7466 2.82071 13.3668 2.5134 14.652 2.51262C15.4478 2.51206 15.6479 2.55597 16.2868 2.87158C17.1357 3.29093 17.728 3.90219 18.1401 4.78403C18.3856 5.30959 18.4343 5.57119 18.4343 6.36597C18.4343 7.99004 18.3927 8.04751 13.9844 12.4999C11.8949 14.6104 10.1292 16.3371 10.0607 16.3371C9.99228 16.3371 8.22656 14.6104 6.13707 12.4999C1.70141 8.01984 1.68556 7.99777 1.68935 6.30995C1.69147 5.37994 1.72095 5.24707 2.06896 4.59939C2.2764 4.21309 2.64618 3.71577 2.89057 3.49416C4.33653 2.18323 6.56792 2.16139 8.02348 3.44386C8.53304 3.89278 9.03043 3.88841 9.36839 3.43221C9.56042 3.17295 9.5727 3.08613 9.45726 2.80649C9.3215 2.47755 8.55224 1.82629 7.9394 1.52133C6.98738 1.04775 5.68501 0.832979 4.70161 0.987588ZM4.49015 3.29261C3.465 3.66961 2.62943 4.75411 2.4662 5.91951C2.40792 6.33583 2.43784 6.47969 2.63546 6.73177C3.07178 7.28836 3.9759 7.00132 3.9759 6.30637C3.9759 5.50184 4.65729 4.74784 5.49856 4.62124C6.35847 4.49184 6.71507 3.84898 6.20886 3.34101C5.93968 3.07089 5.15323 3.04871 4.49015 3.29261Z" fill="#FD9149"/>
</svg>
