<svg width="21" height="19" viewBox="0 0 21 19" fill="none" xmlns="http://www.w3.org/2000/svg">
<path fill-rule="evenodd" clip-rule="evenodd" d="M4.86079 0.987588C2.39538 1.37512 0.501276 3.39938 0.270277 5.89352C0.183861 6.8261 0.360377 7.74883 0.810653 8.71872C1.11501 9.37435 1.58415 9.88568 5.5136 13.8443C9.35976 17.7191 9.91912 18.2417 10.2199 18.2417C10.5207 18.2417 11.08 17.7191 14.9262 13.8443C18.8722 9.86899 19.3246 9.37558 19.6395 8.70382C20.3748 7.13577 20.3593 5.48033 19.5948 3.92796C18.6715 2.05338 16.9132 0.968766 14.7975 0.968766C13.0899 0.968766 12.0565 1.4531 10.4825 2.99135C9.59109 3.86242 9.49407 3.99787 9.49407 4.37095C9.49418 4.67154 9.56207 4.83254 9.74238 4.95914C10.2221 5.29648 10.4675 5.18366 11.5628 4.12223C12.9058 2.82071 13.526 2.5134 14.8112 2.51262C15.607 2.51206 15.8071 2.55597 16.4459 2.87158C17.2949 3.29093 17.8872 3.90219 18.2993 4.78403C18.5448 5.30959 18.5935 5.57119 18.5935 6.36597C18.5935 7.99004 18.5518 8.04751 14.1435 12.4999C12.054 14.6104 10.2883 16.3371 10.2199 16.3371C10.1515 16.3371 8.38574 14.6104 6.29625 12.4999C1.86059 8.01984 1.84474 7.99777 1.84853 6.30995C1.85065 5.37994 1.88013 5.24707 2.22814 4.59939C2.43558 4.21309 2.80536 3.71577 3.04975 3.49416C4.49571 2.18323 6.7271 2.16139 8.18266 3.44386C8.69222 3.89278 9.18961 3.88841 9.52757 3.43221C9.7196 3.17295 9.73188 3.08613 9.61644 2.80649C9.48067 2.47755 8.71142 1.82629 8.09858 1.52133C7.14656 1.04775 5.84419 0.832979 4.86079 0.987588ZM4.64933 3.29261C3.62418 3.66961 2.78861 4.75411 2.62538 5.91951C2.5671 6.33583 2.59702 6.47969 2.79464 6.73177C3.23096 7.28836 4.13508 7.00132 4.13508 6.30637C4.13508 5.50184 4.81647 4.74784 5.65774 4.62124C6.51765 4.49184 6.87425 3.84898 6.36804 3.34101C6.09886 3.07089 5.31241 3.04871 4.64933 3.29261Z" fill="#FD9149"/>
</svg>
