<svg width="17" height="10" viewBox="0 0 17 10" fill="none" xmlns="http://www.w3.org/2000/svg">
<path fill-rule="evenodd" clip-rule="evenodd" d="M16.9029 8.54029C16.7712 8.81399 16.497 9.09082 16.2264 9.22326C16.0483 9.31046 15.9801 9.32457 15.7426 9.32332C15.2102 9.32059 15.4414 9.52198 12.0099 6.07259L8.96851 3.01531L5.92709 6.05887C2.6419 9.34644 2.72278 9.27352 2.30261 9.32602C1.81356 9.38712 1.27617 9.06172 1.05072 8.56798C0.87501 8.18324 0.906666 7.71379 1.13069 7.38144C1.18351 7.30313 2.80489 5.65689 4.73374 3.72313C8.7114 -0.26452 8.40567 0.00381565 8.97155 0.00381565C9.52588 0.00381565 9.23346 -0.254152 13.2313 3.76153C17.2122 7.76013 16.9765 7.49197 16.9972 8.04547C17.0065 8.29487 16.997 8.34467 16.9029 8.54029Z" fill="#FEAA6F"/>
</svg>
