<svg width="20" height="19" viewBox="0 0 20 19" fill="none" xmlns="http://www.w3.org/2000/svg">
<path fill-rule="evenodd" clip-rule="evenodd" d="M4.62202 0.987588C2.15661 1.37512 0.262507 3.39938 0.0315072 5.89352C-0.0549083 6.8261 0.121607 7.74883 0.571883 8.71872C0.876236 9.37435 1.34538 9.88568 5.27483 13.8443C9.12099 17.7191 9.68035 18.2417 9.98113 18.2417C10.2819 18.2417 10.8413 17.7191 14.6874 13.8443C18.6334 9.86899 19.0858 9.37558 19.4008 8.70382C20.1361 7.13577 20.1205 5.48033 19.356 3.92796C18.4328 2.05338 16.6744 0.968766 14.5587 0.968766C12.8511 0.968766 11.8177 1.4531 10.2437 2.99135C9.35232 3.86242 9.2553 3.99787 9.2553 4.37095C9.25541 4.67154 9.3233 4.83254 9.50361 4.95914C9.98336 5.29648 10.2288 5.18366 11.324 4.12223C12.667 2.82071 13.2872 2.5134 14.5724 2.51262C15.3683 2.51206 15.5683 2.55597 16.2072 2.87158C17.0561 3.29093 17.6484 3.90219 18.0605 4.78403C18.306 5.30959 18.3547 5.57119 18.3547 6.36597C18.3547 7.99004 18.3131 8.04751 13.9048 12.4999C11.8153 14.6104 10.0496 16.3371 9.98113 16.3371C9.91269 16.3371 8.14697 14.6104 6.05748 12.4999C1.62182 8.01984 1.60597 7.99777 1.60976 6.30995C1.61188 5.37994 1.64136 5.24707 1.98937 4.59939C2.19681 4.21309 2.56659 3.71577 2.81098 3.49416C4.25694 2.18323 6.48833 2.16139 7.94389 3.44386C8.45345 3.89278 8.95084 3.88841 9.2888 3.43221C9.48083 3.17295 9.49311 3.08613 9.37767 2.80649C9.24191 2.47755 8.47265 1.82629 7.85982 1.52133C6.90779 1.04775 5.60542 0.832979 4.62202 0.987588ZM4.41056 3.29261C3.38541 3.66961 2.54984 4.75411 2.38661 5.91951C2.32833 6.33583 2.35825 6.47969 2.55587 6.73177C2.99219 7.28836 3.89631 7.00132 3.89631 6.30637C3.89631 5.50184 4.5777 4.74784 5.41897 4.62124C6.27888 4.49184 6.63548 3.84898 6.12927 3.34101C5.86009 3.07089 5.07364 3.04871 4.41056 3.29261Z" fill="#FD9149"/>
</svg>
