<svg width="9" height="5" viewBox="0 0 9 5" fill="none" xmlns="http://www.w3.org/2000/svg">
<path fill-rule="evenodd" clip-rule="evenodd" d="M4.59591 4.90355C4.72183 4.86613 5.17686 4.43784 6.4782 3.13198C8.33037 1.27338 8.3521 1.24563 8.27548 0.83581C8.23809 0.636044 7.79131 0.123631 7.58488 0.0437918C7.4212 -0.0195279 7.09417 -0.0141959 6.96052 0.0539322C6.89946 0.0850682 6.27842 0.681224 5.58037 1.37874L4.31125 2.64689L3.04212 1.37874C2.34408 0.681224 1.72304 0.0850682 1.66197 0.0539322C1.50859 -0.024241 1.1706 -0.0169568 1.00668 0.06812C0.76889 0.191522 0.383597 0.640281 0.346875 0.83662C0.27106 1.2422 0.300665 1.28043 2.0736 3.06656C2.97812 3.97784 3.78481 4.76519 3.86622 4.81623C4.04822 4.9304 4.3742 4.96939 4.59591 4.90355Z" fill="white"/>
</svg>
