<svg width="21" height="19" viewBox="0 0 21 19" fill="none" xmlns="http://www.w3.org/2000/svg">
<path fill-rule="evenodd" clip-rule="evenodd" d="M4.7812 0.987588C2.31579 1.37512 0.421687 3.39938 0.190687 5.89352C0.104271 6.8261 0.280787 7.74883 0.731063 8.71872C1.03542 9.37435 1.50456 9.88568 5.43401 13.8443C9.28017 17.7191 9.83953 18.2417 10.1403 18.2417C10.4411 18.2417 11.0004 17.7191 14.8466 13.8443C18.7926 9.86899 19.245 9.37558 19.5599 8.70382C20.2952 7.13577 20.2797 5.48033 19.5152 3.92796C18.5919 2.05338 16.8336 0.968766 14.7179 0.968766C13.0103 0.968766 11.9769 1.4531 10.4029 2.99135C9.5115 3.86242 9.41448 3.99787 9.41448 4.37095C9.41459 4.67154 9.48248 4.83254 9.66279 4.95914C10.1425 5.29648 10.3879 5.18366 11.4832 4.12223C12.8262 2.82071 13.4464 2.5134 14.7316 2.51262C15.5274 2.51206 15.7275 2.55597 16.3664 2.87158C17.2153 3.29093 17.8076 3.90219 18.2197 4.78403C18.4652 5.30959 18.5139 5.57119 18.5139 6.36597C18.5139 7.99004 18.4723 8.04751 14.064 12.4999C11.9745 14.6104 10.2087 16.3371 10.1403 16.3371C10.0719 16.3371 8.30615 14.6104 6.21666 12.4999C1.781 8.01984 1.76515 7.99777 1.76894 6.30995C1.77106 5.37994 1.80054 5.24707 2.14855 4.59939C2.35599 4.21309 2.72577 3.71577 2.97016 3.49416C4.41612 2.18323 6.64751 2.16139 8.10307 3.44386C8.61263 3.89278 9.11002 3.88841 9.44798 3.43221C9.64001 3.17295 9.65229 3.08613 9.53685 2.80649C9.40108 2.47755 8.63183 1.82629 8.01899 1.52133C7.06697 1.04775 5.7646 0.832979 4.7812 0.987588ZM4.56974 3.29261C3.54459 3.66961 2.70902 4.75411 2.54579 5.91951C2.48751 6.33583 2.51743 6.47969 2.71505 6.73177C3.15137 7.28836 4.05549 7.00132 4.05549 6.30637C4.05549 5.50184 4.73688 4.74784 5.57815 4.62124C6.43806 4.49184 6.79466 3.84898 6.28845 3.34101C6.01927 3.07089 5.23282 3.04871 4.56974 3.29261Z" fill="#FD9149"/>
</svg>
