<svg width="12" height="12" viewBox="0 0 12 12" fill="none" xmlns="http://www.w3.org/2000/svg">
<path fill-rule="evenodd" clip-rule="evenodd" d="M4.56238 0.88509C4.48475 0.898922 4.26878 0.938112 4.08245 0.972115C2.46762 1.26668 1.03596 2.68853 0.631801 4.39906C0.490024 4.99913 0.503631 6.00165 0.661444 6.58575C1.0219 7.91977 1.83863 8.94027 3.01955 9.53199C3.61054 9.82816 4.36719 10.0134 4.98585 10.0134C5.78745 10.0134 6.77764 9.7099 7.42012 9.26728L7.67641 9.09075L7.99678 9.4015C8.91796 10.2952 10.485 11.7088 10.64 11.786C11.045 11.9879 11.5261 11.6719 11.5261 11.2042C11.5261 11.0424 11.4868 10.8978 11.4179 10.8061C11.3584 10.7268 10.6969 10.0983 9.94801 9.40957L8.58641 8.15716L8.77754 7.86133C9.00158 7.51467 9.26334 6.84452 9.36599 6.35522C9.47643 5.82846 9.45035 4.82733 9.31218 4.29348C9.06719 3.34669 8.38913 2.32734 7.62192 1.75252C7.2242 1.45456 6.59018 1.14824 6.11347 1.02381C5.6913 0.913561 4.83256 0.836794 4.56238 0.88509ZM5.94572 1.64025C7.26858 1.9744 8.40014 3.14861 8.71769 4.51675C8.8379 5.03463 8.8362 5.90062 8.71408 6.38404C8.42228 7.53934 7.67488 8.46682 6.62327 8.97877C5.51886 9.51637 4.40158 9.50449 3.27493 8.9431C2.40913 8.5116 1.70222 7.70371 1.36785 6.76338C0.8655 5.35069 1.222 3.74862 2.27881 2.66997C3.24974 1.67886 4.5988 1.30004 5.94572 1.64025Z" fill="black"/>
</svg>
